<svg width="28" height="27" viewBox="0 0 28 27" fill="none" xmlns="http://www.w3.org/2000/svg">
<path d="M21.9993 0H5.99935C3.05383 0 0.666016 2.38781 0.666016 5.33333V21.3333C0.666016 24.2789 3.05383 26.6667 5.99935 26.6667H21.9993C24.9449 26.6667 27.3327 24.2789 27.3327 21.3333V5.33333C27.3327 2.38781 24.9449 0 21.9993 0Z" fill="white" fill-opacity="0.1"/>
<path d="M12.9861 17.0267C12.6336 17.0323 12.2932 16.8981 12.0394 16.6534L8.99941 13.6667C8.74657 13.4174 8.60312 13.0779 8.60062 12.7228C8.59812 12.3678 8.73677 12.0262 8.98607 11.7734C9.23538 11.5206 9.57491 11.3771 9.92998 11.3746C10.285 11.3721 10.6266 11.5108 10.8794 11.7601L12.9861 13.8267L18.4527 8.4934C18.5779 8.36996 18.7262 8.27238 18.8891 8.20624C19.052 8.14011 19.2264 8.10671 19.4022 8.10794C19.578 8.10918 19.7518 8.14504 19.9138 8.21346C20.0757 8.28188 20.2226 8.38154 20.3461 8.50673C20.4695 8.63193 20.5671 8.78021 20.6332 8.94311C20.6994 9.10601 20.7328 9.28035 20.7315 9.45616C20.7303 9.63197 20.6944 9.80582 20.626 9.96777C20.5576 10.1297 20.4579 10.2766 20.3327 10.4001L13.9194 16.7067C13.6607 16.9288 13.3267 17.0433 12.9861 17.0267Z" fill="#19B366"/>
</svg>
