<svg width="18" height="18" viewBox="0 0 18 18" fill="none" xmlns="http://www.w3.org/2000/svg">
<path d="M2.64718 15.353C3.47191 16.1777 4.43261 16.8253 5.50267 17.2779C6.61122 17.7467 7.78798 17.9845 9.00032 17.9845C10.2126 17.9845 11.3894 17.7467 12.498 17.2779C13.568 16.8253 14.5287 16.1776 15.3535 15.353C16.1782 14.5282 16.8259 13.5675 17.2784 12.4974C17.7473 11.3889 17.985 10.2121 17.985 8.99983C17.985 7.78746 17.7473 6.6107 17.2784 5.50218C16.8259 4.43212 16.1782 3.47142 15.3535 2.64669C14.5287 1.82196 13.568 1.17432 12.498 0.721745C11.3894 0.252847 10.2126 0.0151367 9.00032 0.0151367C7.78798 0.0151367 6.61122 0.252877 5.50267 0.721745C4.43261 1.17432 3.47191 1.822 2.64718 2.64669C1.82245 3.47139 1.17481 4.43212 0.722203 5.50215C0.253365 6.6107 0.015625 7.78746 0.015625 8.99983C0.015625 10.2121 0.253366 11.3889 0.722233 12.4974C1.17481 13.5675 1.82248 14.5282 2.64718 15.353ZM9.00032 1.32677C13.238 1.32677 16.6733 4.76211 16.6733 8.99983C16.6733 13.2375 13.238 16.6728 9.00032 16.6728C4.7626 16.6728 1.32725 13.2375 1.32725 8.99983C1.32725 4.76211 4.7626 1.32677 9.00032 1.32677Z" fill="#52FF00"/>
<path d="M9 17.9999C7.78552 17.9999 6.60677 17.7618 5.49638 17.2922C4.42448 16.8388 3.46213 16.19 2.63606 15.3639C1.80992 14.5378 1.16118 13.5754 0.707833 12.5036C0.238139 11.3931 0 10.2143 0 9C0 7.78564 0.238139 6.60683 0.707802 5.49635C1.16115 4.42451 1.80992 3.46216 2.63603 2.63603C3.46213 1.80989 4.42451 1.16115 5.49635 0.707802C6.60683 0.238139 7.78561 0 8.99997 0C10.2144 0 11.3932 0.238139 12.5036 0.707833C13.5754 1.16118 14.5378 1.80995 15.3639 2.63606C16.1901 3.46225 16.8389 4.42461 17.2922 5.49638C17.7619 6.60686 18 7.78564 18 9C18 10.2143 17.7619 11.3931 17.2922 12.5036C16.8389 13.5754 16.1901 14.5377 15.3639 15.364C14.5378 16.19 13.5755 16.8388 12.5036 17.2922C11.3932 17.7618 10.2144 17.9999 9 17.9999ZM9 0.0306169C7.78974 0.0306169 6.615 0.267929 5.50832 0.736001C4.44013 1.18781 3.48102 1.83435 2.6577 2.65767C1.83435 3.48102 1.18781 4.4401 0.736 5.50826C0.267929 6.61497 0.0306169 7.78974 0.0306169 9C0.0306169 10.2102 0.267929 11.385 0.736 12.4917C1.18781 13.5599 1.83435 14.5189 2.6577 15.3423C3.48099 16.1656 4.44007 16.8121 5.50832 17.264C6.61488 17.732 7.78965 17.9693 9 17.9693C10.2103 17.9693 11.3851 17.732 12.4917 17.2639C13.5599 16.8121 14.519 16.1656 15.3423 15.3423C16.1657 14.5189 16.8122 13.5598 17.2639 12.4917C17.732 11.385 17.9694 10.2102 17.9694 9C17.9694 7.78974 17.732 6.61497 17.2639 5.50832C16.8122 4.44019 16.1657 3.48111 15.3423 2.6577C14.5189 1.83438 13.5598 1.18785 12.4917 0.736031C11.3851 0.267929 10.2103 0.0306169 9 0.0306169ZM9 16.6883C6.94637 16.6883 5.01564 15.8886 3.5635 14.4365C2.11137 12.9843 1.31163 11.0536 1.31163 9C1.31163 6.94637 2.11134 5.01564 3.5635 3.5635C5.01564 2.11137 6.94637 1.31163 9 1.31163C11.0536 1.31163 12.9843 2.11137 14.4365 3.5635C15.8886 5.01567 16.6883 6.94637 16.6883 9C16.6883 11.0536 15.8886 12.9843 14.4365 14.4365C12.9843 15.8886 11.0536 16.6883 9 16.6883ZM9 1.34225C6.95454 1.34225 5.03153 2.13881 3.58515 3.58515C2.13881 5.03153 1.34225 6.95454 1.34225 9C1.34225 11.0455 2.13881 12.9685 3.58515 14.4148C5.0315 15.8611 6.95454 16.6577 9 16.6577C11.0455 16.6577 12.9685 15.8611 14.4148 14.4148C15.8612 12.9685 16.6577 11.0454 16.6577 9C16.6577 6.95454 15.8612 5.0315 14.4148 3.58515C12.9684 2.13878 11.0455 1.34225 9 1.34225Z" fill="#52FF00"/>
<path d="M7.01217 12.2708C7.13516 12.3939 7.30196 12.4629 7.4759 12.4629C7.64986 12.4629 7.81663 12.3938 7.93962 12.2708L13.5543 6.65616C13.8104 6.40005 13.8104 5.98483 13.5543 5.72872C13.2982 5.4726 12.883 5.47257 12.6269 5.72872L7.4759 10.8797L5.37539 8.77917C5.11928 8.52303 4.70405 8.52303 4.44794 8.77917C4.19183 9.03528 4.19183 9.45051 4.44794 9.70662L7.01217 12.2708Z" fill="#52FF00"/>
<path d="M7.47527 12.4784C7.296 12.4784 7.12746 12.4086 7.0007 12.2819L4.43647 9.71763C4.17482 9.45594 4.17482 9.03018 4.43647 8.7685C4.56323 8.64172 4.73177 8.57191 4.91104 8.57191C5.0903 8.57191 5.25881 8.64172 5.3856 8.7685L7.4753 10.8582L12.6154 5.71805C12.7422 5.59126 12.9107 5.52148 13.09 5.52148C13.2692 5.52148 13.4378 5.59129 13.5645 5.71805C13.6913 5.8448 13.7611 6.01335 13.7611 6.19261C13.7611 6.37187 13.6913 6.54039 13.5645 6.66717L7.94983 12.2819C7.8231 12.4086 7.65456 12.4784 7.47527 12.4784ZM4.91104 8.60256C4.73995 8.60256 4.57912 8.66918 4.45815 8.79018C4.20844 9.03992 4.20844 9.44624 4.45815 9.69598L7.02238 12.2602C7.14335 12.3812 7.30418 12.4478 7.47527 12.4478C7.64638 12.4478 7.80721 12.3812 7.92818 12.2602L13.5429 6.64552C13.6638 6.52456 13.7305 6.3637 13.7305 6.19264C13.7305 6.02158 13.6638 5.86069 13.5429 5.73972C13.4219 5.61872 13.261 5.55213 13.09 5.55213C12.9189 5.55213 12.758 5.61875 12.637 5.73972L7.47527 10.9015L5.36392 8.79018C5.24295 8.66918 5.08212 8.60256 4.91104 8.60256Z" fill="#52FF00"/>
</svg>
