<svg width="35" height="35" viewBox="0 0 35 35" fill="none" xmlns="http://www.w3.org/2000/svg">
<path fill-rule="evenodd" clip-rule="evenodd" d="M33.4401 24.7224C35.1111 21.0346 35.4516 16.8815 34.4037 12.9707L31.9531 13.6273L26.2533 15.5824C26.6658 17.4654 26.4607 19.4356 25.6621 21.1982C24.8065 23.0866 23.3226 24.6199 21.4633 25.5368C19.6039 26.4537 17.4842 26.6976 15.4652 26.2268C13.4462 25.756 11.6529 24.5998 10.3909 22.9551C9.12884 21.3103 8.47612 19.2789 8.54395 17.2068C8.61178 15.1348 9.39596 13.1504 10.7629 11.5917C12.1298 10.0331 13.9949 8.99657 16.0403 8.65887C17.6645 8.39071 19.3226 8.57632 20.8356 9.18312L25.4461 1.90807C22.1254 0.215617 18.3424 -0.37596 14.6493 0.233775C10.6547 0.893294 7.01231 2.9175 4.34281 5.96148C1.6733 9.00547 0.141845 12.8809 0.00937561 16.9275C-0.123094 20.974 1.15162 24.9413 3.61632 28.1534C6.08103 31.3654 9.58322 33.6235 13.5262 34.5429C17.4691 35.4622 21.6089 34.986 25.2401 33.1953C28.8712 31.4046 31.7692 28.4102 33.4401 24.7224Z" fill="url(#paint0_linear_69_148)"/>
<path d="M26.7749 2.41564C30.0364 4.56213 32.488 7.77636 33.7285 11.5321L25.8098 14.2625C25.1746 12.3393 23.9192 10.6935 22.2492 9.5944L26.7749 2.41564Z" fill="url(#paint1_linear_69_148)"/>
<defs>
<linearGradient id="paint0_linear_69_148" x1="35.8167" y1="9.19492" x2="-1.25111" y2="12.0748" gradientUnits="userSpaceOnUse">
<stop stop-color="#246CF9"/>
<stop offset="0.0001" stop-color="#1E68F6"/>
<stop offset="1" stop-color="#0047D0"/>
</linearGradient>
<linearGradient id="paint1_linear_69_148" x1="18.3423" y1="12.6116" x2="-2.29098" y2="18.5465" gradientUnits="userSpaceOnUse">
<stop stop-color="#37FF80"/>
<stop offset="0.0001" stop-color="#1E68F6"/>
<stop offset="1" stop-color="#0047D0"/>
</linearGradient>
</defs>
</svg>
