<svg width="19" height="19" viewBox="0 0 19 19" fill="none" xmlns="http://www.w3.org/2000/svg">
<path d="M9.5 18.25C14.3325 18.25 18.25 14.3325 18.25 9.5C18.25 4.66751 14.3325 0.75 9.5 0.75C4.66751 0.75 0.75 4.66751 0.75 9.5C0.75 14.3325 4.66751 18.25 9.5 18.25Z" fill="#FF3300"/>
<path d="M10.7339 9.50016L12.7464 7.49641C12.9112 7.33165 13.0038 7.10818 13.0038 6.87516C13.0038 6.64215 12.9112 6.41868 12.7464 6.25391C12.5817 6.08915 12.3582 5.99658 12.1252 5.99658C11.8922 5.99658 11.6687 6.08915 11.5039 6.25391L9.50019 8.26641L7.49644 6.25391C7.33168 6.08915 7.1082 5.99658 6.87519 5.99658C6.64218 5.99658 6.41871 6.08915 6.25394 6.25391C6.08917 6.41868 5.99661 6.64215 5.99661 6.87516C5.99661 7.10818 6.08917 7.33165 6.25394 7.49641L8.26644 9.50016L6.25394 11.5039C6.17193 11.5853 6.10683 11.682 6.06241 11.7887C6.01799 11.8953 5.99512 12.0097 5.99512 12.1252C5.99512 12.2407 6.01799 12.355 6.06241 12.4617C6.10683 12.5683 6.17193 12.6651 6.25394 12.7464C6.33528 12.8284 6.43206 12.8935 6.53869 12.9379C6.64531 12.9824 6.75968 13.0052 6.87519 13.0052C6.9907 13.0052 7.10507 12.9824 7.2117 12.9379C7.31832 12.8935 7.4151 12.8284 7.49644 12.7464L9.50019 10.7339L11.5039 12.7464C11.5853 12.8284 11.6821 12.8935 11.7887 12.9379C11.8953 12.9824 12.0097 13.0052 12.1252 13.0052C12.2407 13.0052 12.3551 12.9824 12.4617 12.9379C12.5683 12.8935 12.6651 12.8284 12.7464 12.7464C12.8285 12.6651 12.8935 12.5683 12.938 12.4617C12.9824 12.355 13.0053 12.2407 13.0053 12.1252C13.0053 12.0097 12.9824 11.8953 12.938 11.7887C12.8935 11.682 12.8285 11.5853 12.7464 11.5039L10.7339 9.50016Z" fill="#EDEBEA"/>
</svg>
