<svg width="18" height="18" viewBox="0 0 18 18" fill="none" xmlns="http://www.w3.org/2000/svg">
<g clip-path="url(#clip0_99_4282)">
<path d="M16.8037 3.03324C16.0311 2.26057 15.0039 1.83508 13.9112 1.83508C12.8185 1.83508 11.7912 2.26057 11.0186 3.03324L4.57001 9.48174C3.61304 10.4387 3.61304 11.9958 4.57006 12.9529C5.52709 13.9099 7.08426 13.9098 8.04123 12.9528L12.2875 8.70656C12.607 8.38704 12.607 7.86904 12.2875 7.54952C11.968 7.23 11.4499 7.23 11.1304 7.54952L6.88419 11.7958C6.56522 12.1148 6.04613 12.1148 5.7271 11.7958C5.40807 11.4768 5.40807 10.9577 5.72704 10.6387L12.1756 4.19033C12.6392 3.72676 13.2556 3.47144 13.9112 3.47144C14.5668 3.47144 15.1831 3.72676 15.6467 4.19033C16.6037 5.14736 16.6037 6.70447 15.6468 7.6615L8.61977 14.6884C7.0247 16.2833 4.42945 16.2833 2.83453 14.6884C2.06186 13.9158 1.63631 12.8885 1.63631 11.7958C1.63631 10.7031 2.06186 9.6758 2.83453 8.90313L9.86141 1.87615C10.1809 1.55663 10.1809 1.03863 9.86141 0.71911C9.54195 0.399647 9.02389 0.399592 8.70437 0.71911L1.67749 7.7461C0.595727 8.82781 0 10.266 0 11.7958C0 13.3256 0.595727 14.7638 1.67749 15.8455C2.79412 16.9621 4.26036 17.5203 5.7271 17.5202C7.19351 17.5201 8.66041 16.9618 9.77681 15.8455L16.8039 8.81848C18.3988 7.22346 18.3987 4.62826 16.8037 3.03324Z" fill="#3C4043"/>
</g>
<defs>
<clipPath id="clip0_99_4282">
<rect width="18" height="18" fill="white"/>
</clipPath>
</defs>
</svg>
