<svg width="18" height="18" viewBox="0 0 18 18" fill="none" xmlns="http://www.w3.org/2000/svg">
<g clip-path="url(#clip0_183_755)">
<path d="M2.64718 15.353C3.47191 16.1777 4.43261 16.8253 5.50267 17.2779C6.61122 17.7467 7.78798 17.9845 9.00032 17.9845C10.2126 17.9845 11.3894 17.7467 12.498 17.2779C13.568 16.8253 14.5287 16.1776 15.3535 15.353C16.1782 14.5282 16.8259 13.5675 17.2784 12.4974C17.7473 11.3889 17.985 10.2121 17.985 8.99983C17.985 7.78746 17.7473 6.6107 17.2784 5.50218C16.8259 4.43212 16.1782 3.47142 15.3535 2.64669C14.5287 1.82196 13.568 1.17432 12.498 0.721745C11.3894 0.252847 10.2126 0.0151367 9.00032 0.0151367C7.78798 0.0151367 6.61122 0.252877 5.50267 0.721745C4.43261 1.17432 3.47191 1.822 2.64718 2.64669C1.82245 3.47139 1.17481 4.43212 0.722203 5.50215C0.253365 6.6107 0.015625 7.78746 0.015625 8.99983C0.015625 10.2121 0.253365 11.3889 0.722233 12.4974C1.17481 13.5675 1.82248 14.5282 2.64718 15.353ZM9.00032 1.32677C13.238 1.32677 16.6733 4.76211 16.6733 8.99983C16.6733 13.2375 13.238 16.6728 9.00032 16.6728C4.7626 16.6728 1.32725 13.2375 1.32725 8.99983C1.32725 4.76211 4.7626 1.32677 9.00032 1.32677Z" fill="#FF6363"/>
<path d="M9 17.9999C7.78552 17.9999 6.60677 17.7618 5.49638 17.2922C4.42448 16.8388 3.46213 16.19 2.63606 15.3639C1.80992 14.5378 1.16118 13.5754 0.707833 12.5036C0.238139 11.3931 0 10.2143 0 9C0 7.78564 0.238139 6.60683 0.707802 5.49635C1.16115 4.42451 1.80992 3.46216 2.63603 2.63603C3.46213 1.80989 4.42451 1.16115 5.49635 0.707802C6.60683 0.238139 7.78561 0 8.99997 0C10.2144 0 11.3932 0.238139 12.5036 0.707833C13.5754 1.16118 14.5378 1.80995 15.3639 2.63606C16.1901 3.46225 16.8389 4.42461 17.2922 5.49638C17.7619 6.60686 18 7.78564 18 9C18 10.2143 17.7619 11.3931 17.2922 12.5036C16.8389 13.5754 16.1901 14.5377 15.3639 15.364C14.5378 16.19 13.5755 16.8388 12.5036 17.2922C11.3932 17.7618 10.2144 17.9999 9 17.9999ZM9 0.0306169C7.78974 0.0306169 6.615 0.267929 5.50832 0.736001C4.44013 1.18781 3.48102 1.83435 2.6577 2.65767C1.83435 3.48102 1.18781 4.4401 0.736 5.50826C0.267929 6.61497 0.0306169 7.78974 0.0306169 9C0.0306169 10.2102 0.267929 11.385 0.736 12.4917C1.18781 13.5599 1.83435 14.5189 2.6577 15.3423C3.48099 16.1656 4.44007 16.8121 5.50832 17.264C6.61488 17.732 7.78965 17.9693 9 17.9693C10.2103 17.9693 11.3851 17.732 12.4917 17.2639C13.5599 16.8121 14.519 16.1656 15.3423 15.3423C16.1657 14.5189 16.8122 13.5598 17.2639 12.4917C17.732 11.385 17.9694 10.2102 17.9694 9C17.9694 7.78974 17.732 6.61497 17.2639 5.50832C16.8122 4.44019 16.1657 3.48111 15.3423 2.6577C14.5189 1.83438 13.5598 1.18785 12.4917 0.736031C11.3851 0.267929 10.2103 0.0306169 9 0.0306169ZM9 16.6883C6.94637 16.6883 5.01564 15.8886 3.5635 14.4365C2.11137 12.9843 1.31163 11.0536 1.31163 9C1.31163 6.94637 2.11134 5.01564 3.5635 3.5635C5.01564 2.11137 6.94637 1.31163 9 1.31163C11.0536 1.31163 12.9843 2.11137 14.4365 3.5635C15.8886 5.01567 16.6883 6.94637 16.6883 9C16.6883 11.0536 15.8886 12.9843 14.4365 14.4365C12.9843 15.8886 11.0536 16.6883 9 16.6883ZM9 1.34225C6.95454 1.34225 5.03153 2.13881 3.58515 3.58515C2.13881 5.03153 1.34225 6.95454 1.34225 9C1.34225 11.0455 2.13881 12.9685 3.58515 14.4148C5.0315 15.8611 6.95454 16.6577 9 16.6577C11.0455 16.6577 12.9685 15.8611 14.4148 14.4148C15.8612 12.9685 16.6577 11.0454 16.6577 9C16.6577 6.95454 15.8612 5.0315 14.4148 3.58515C12.9684 2.13878 11.0455 1.34225 9 1.34225Z" fill="#FF6363"/>
<path d="M5.66282 12.3379C5.79089 12.466 5.9587 12.53 6.12654 12.53C6.29438 12.53 6.46222 12.466 6.59026 12.3379L9.0011 9.92706L11.412 12.3379C11.54 12.466 11.7079 12.53 11.8757 12.53C12.0435 12.53 12.2113 12.466 12.3394 12.3379C12.5955 12.0818 12.5955 11.6666 12.3394 11.4105L9.92852 8.99964L12.3394 6.58877C12.5955 6.33266 12.5955 5.9174 12.3394 5.66132C12.0833 5.40521 11.6681 5.40521 11.4119 5.66132L9.00107 8.07219L6.59023 5.66132C6.33412 5.40521 5.91887 5.40521 5.66279 5.66132C5.40668 5.91743 5.40668 6.33266 5.66279 6.58877L8.07365 8.99964L5.66279 11.4105C5.40671 11.6666 5.40671 12.0818 5.66282 12.3379Z" fill="#FF6363"/>
<path d="M11.8754 12.5455C11.6961 12.5455 11.5275 12.4757 11.4008 12.3489L9.00076 9.94888L6.60076 12.3489C6.47401 12.4757 6.30546 12.5455 6.1262 12.5455C5.94694 12.5455 5.77839 12.4757 5.65164 12.3489C5.52488 12.2222 5.45508 12.0536 5.45508 11.8744C5.45508 11.6951 5.52488 11.5266 5.65164 11.3998L8.05167 8.99982L5.65164 6.59979C5.38999 6.3381 5.38999 5.91235 5.65164 5.65066C5.77839 5.52391 5.94691 5.4541 6.1262 5.4541C6.30546 5.4541 6.47401 5.52391 6.60076 5.65066L9.00079 8.05069L11.4008 5.65066C11.5276 5.52391 11.6961 5.4541 11.8754 5.4541C12.0546 5.4541 12.2231 5.52391 12.3499 5.65066C12.4767 5.77742 12.5464 5.94596 12.5464 6.12522C12.5464 6.30449 12.4767 6.47303 12.3499 6.59979L9.94986 8.99982L12.3499 11.3998C12.4767 11.5266 12.5465 11.6951 12.5465 11.8744C12.5465 12.0536 12.4767 12.2222 12.3499 12.3489C12.2231 12.4757 12.0546 12.5455 11.8754 12.5455ZM9.00076 9.90559L11.4224 12.3273C11.5434 12.4483 11.7042 12.5149 11.8754 12.5149C12.0464 12.5149 12.2073 12.4483 12.3283 12.3273C12.4492 12.2063 12.5159 12.0455 12.5159 11.8744C12.5159 11.7033 12.4492 11.5425 12.3283 11.4215L9.90654 8.99982L12.3282 6.57814C12.4492 6.45717 12.5158 6.29631 12.5158 6.12522C12.5158 5.95414 12.4492 5.79331 12.3282 5.67234C12.2073 5.55137 12.0464 5.48475 11.8754 5.48475C11.7043 5.48475 11.5434 5.55137 11.4224 5.67234L9.00076 8.09402L6.57909 5.67234C6.45812 5.55137 6.29726 5.48475 6.12617 5.48475C5.95508 5.48475 5.79425 5.55137 5.67328 5.67234C5.42357 5.92208 5.42357 6.3284 5.67328 6.57814L8.09496 8.99982L5.67328 11.4215C5.55232 11.5425 5.4857 11.7033 5.4857 11.8744C5.4857 12.0455 5.55232 12.2063 5.67328 12.3273C5.79428 12.4483 5.95511 12.5149 6.1262 12.5149C6.29729 12.5149 6.45812 12.4483 6.57912 12.3273L9.00076 9.90559Z" fill="#FF6363"/>
</g>
<defs>
<clipPath id="clip0_183_755">
<rect width="18" height="18" fill="white"/>
</clipPath>
</defs>
</svg>
