<svg width="6" height="10" viewBox="0 0 6 10" fill="none" xmlns="http://www.w3.org/2000/svg">
<path d="M2.03665 5.00211L5.77762 1.26098C5.88063 1.15821 5.9373 1.02081 5.9373 0.874309C5.9373 0.727724 5.88063 0.590406 5.77762 0.48748L5.44982 0.159837C5.34697 0.056748 5.20949 0 5.06299 0C4.91649 0 4.77917 0.056748 4.67624 0.159837L0.222014 4.61398C0.118681 4.71724 0.0620957 4.8552 0.0625022 5.00187C0.0620957 5.14919 0.1186 5.28699 0.222014 5.39033L4.6721 9.84016C4.77502 9.94325 4.91234 10 5.05892 10C5.20543 10 5.34275 9.94325 5.44575 9.84016L5.77348 9.51252C5.98673 9.29927 5.98673 8.95211 5.77348 8.73894L2.03665 5.00211Z" fill="#32363A"/>
</svg>
