<svg width="24" height="24" viewBox="0 0 24 24" fill="none" xmlns="http://www.w3.org/2000/svg">
<g clip-path="url(#clip0_69_190)">
<path d="M23 15.219C22.59 15.219 22.25 15.559 22.25 15.969C22.249 17.3799 21.7714 18.749 20.8947 19.8544C20.018 20.9599 18.7936 21.7367 17.42 22.059L17.69 21.609C17.7921 21.4379 17.8221 21.2333 17.7733 21.0401C17.7246 20.847 17.6011 20.6811 17.43 20.579C17.2589 20.4769 17.0543 20.4469 16.8612 20.4957C16.668 20.5444 16.5021 20.6679 16.4 20.839L15.35 22.589C15.21 22.819 15.21 23.109 15.34 23.339C15.47 23.579 15.72 23.719 15.99 23.719C20.26 23.719 23.74 20.239 23.74 15.969C23.7413 15.871 23.7232 15.7737 23.6866 15.6827C23.65 15.5918 23.5957 15.509 23.5268 15.4393C23.458 15.3695 23.376 15.3141 23.2855 15.2763C23.1951 15.2385 23.098 15.219 23 15.219ZM8 0.218994C3.73 0.218994 0.25 3.69899 0.25 7.96899C0.25 8.37899 0.59 8.71899 1 8.71899C1.41 8.71899 1.75 8.37899 1.75 7.96899C1.75 5.00899 3.81 2.52899 6.58 1.87899L6.31 2.32899C6.25944 2.4137 6.22606 2.50753 6.21176 2.60513C6.19747 2.70273 6.20254 2.8022 6.22668 2.89784C6.25082 2.99349 6.29357 3.08344 6.35248 3.16256C6.41138 3.24169 6.4853 3.30844 6.57 3.35899C6.6547 3.40955 6.74853 3.44293 6.84614 3.45723C6.94374 3.47153 7.0432 3.46646 7.13885 3.44231C7.23449 3.41817 7.32444 3.37543 7.40357 3.31652C7.48269 3.25761 7.54944 3.1837 7.6 3.09899L8.65 1.34899C8.78 1.11899 8.79 0.838994 8.65 0.598994C8.58461 0.484114 8.4901 0.3885 8.37598 0.321787C8.26187 0.255073 8.13218 0.219618 8 0.218994ZM21.5 8.66999C21.5 11.75 19.26 14.29 16.33 14.76V14.74C16.04 11.01 13.02 7.96999 9.24 7.66999C9.47488 6.22499 10.2169 4.91093 11.3329 3.96349C12.449 3.01604 13.866 2.4972 15.33 2.49999C18.74 2.49999 21.5 5.25999 21.5 8.66999ZM9.81 14.2C9.81 14.05 9.64 13.82 9.43 13.82H7.37V14.57H9.43C9.64 14.58 9.81 14.41 9.81 14.2ZM9.83 16.078H7.37V16.828H9.84C10.16 16.828 10.38 16.628 10.38 16.448C10.38 16.268 10.15 16.078 9.83 16.078Z" fill="#32363A"/>
<path d="M14.83 14.8479C14.7165 13.3793 14.0816 11.9995 13.04 10.9579C11.9984 9.91631 10.6187 9.28144 9.15 9.16795C8.99 9.15795 8.84 9.14795 8.67 9.14795C5.26 9.14795 2.5 11.9079 2.5 15.3279C2.5 18.7379 5.26 21.4979 8.67 21.4979C12.08 21.4979 14.85 18.7379 14.85 15.3279C14.85 15.1579 14.84 15.0079 14.83 14.8479ZM9.83 18.3279H9.17V18.7079C9.17 19.1179 8.83 19.4579 8.42 19.4579C8.01 19.4579 7.67 19.1179 7.67 18.7079V18.3279H6.62C6.21 18.3279 5.87 17.9879 5.87 17.5779V13.0779C5.87 12.6679 6.21 12.3279 6.62 12.3279H7.67V11.9479C7.67 11.5379 8.01 11.1979 8.42 11.1979C8.83 11.1979 9.17 11.5379 9.17 11.9479V12.3279H9.43C10.43 12.3279 11.31 13.2079 11.31 14.2079C11.31 14.4979 11.24 14.7679 11.12 15.0179C11.58 15.3579 11.87 15.8779 11.87 16.4579C11.87 17.4879 10.96 18.3279 9.83 18.3279Z" fill="#32363A"/>
</g>
<defs>
<clipPath id="clip0_69_190">
<rect width="24" height="24" fill="white"/>
</clipPath>
</defs>
</svg>
