<svg width="16" height="16" viewBox="0 0 16 16" fill="none" xmlns="http://www.w3.org/2000/svg">
<path fill-rule="evenodd" clip-rule="evenodd" d="M9.3335 1.33337H4.00016C2.5274 1.33337 1.3335 2.52728 1.3335 4.00004V9.33337C1.3335 10.8061 2.5274 12 4.00016 12C4.00016 13.4728 5.19407 14.6667 6.66683 14.6667H9.00016H12.0002C13.4729 14.6667 14.6668 13.4728 14.6668 12V6.66671C14.6668 5.19395 13.4729 4.00004 12.0002 4.00004C12.0002 2.52728 10.8063 1.33337 9.3335 1.33337ZM12.0002 5.33337V9.33337C12.0002 10.8061 10.8063 12 9.3335 12H5.3335C5.3335 12.7364 5.93045 13.3334 6.66683 13.3334H9.00016H12.0002C12.7365 13.3334 13.3335 12.7364 13.3335 12V6.66671C13.3335 5.93033 12.7365 5.33337 12.0002 5.33337ZM2.66683 4.00004C2.66683 3.26366 3.26378 2.66671 4.00016 2.66671H9.3335C10.0699 2.66671 10.6668 3.26366 10.6668 4.00004V9.33337C10.6668 10.0698 10.0699 10.6667 9.3335 10.6667H4.00016C3.26378 10.6667 2.66683 10.0698 2.66683 9.33337V4.00004Z" fill="#2471EB"/>
</svg>
