<svg width="14" height="14" viewBox="0 0 14 14" fill="none" xmlns="http://www.w3.org/2000/svg">
<path fill-rule="evenodd" clip-rule="evenodd" d="M8.33398 0.333496H3.00065C1.52789 0.333496 0.333984 1.5274 0.333984 3.00016V8.3335C0.333984 9.80625 1.52789 11.0002 3.00065 11.0002C3.00065 12.4729 4.19456 13.6668 5.66732 13.6668H8.00065H11.0007C12.4734 13.6668 13.6673 12.4729 13.6673 11.0002V5.66683C13.6673 4.19407 12.4734 3.00016 11.0007 3.00016C11.0007 1.5274 9.80674 0.333496 8.33398 0.333496ZM11.0007 4.3335V8.3335C11.0007 9.80625 9.80674 11.0002 8.33398 11.0002H4.33398C4.33398 11.7365 4.93094 12.3335 5.66732 12.3335H8.00065H11.0007C11.737 12.3335 12.334 11.7365 12.334 11.0002V5.66683C12.334 4.93045 11.737 4.3335 11.0007 4.3335ZM1.66732 3.00016C1.66732 2.26378 2.26427 1.66683 3.00065 1.66683H8.33398C9.07036 1.66683 9.66732 2.26378 9.66732 3.00016V8.3335C9.66732 9.06987 9.07036 9.66683 8.33398 9.66683H3.00065C2.26427 9.66683 1.66732 9.06987 1.66732 8.3335V3.00016Z" fill="#2471EB"/>
</svg>
