<svg width="15" height="15" viewBox="0 0 15 15" fill="none" xmlns="http://www.w3.org/2000/svg">
<path fill-rule="evenodd" clip-rule="evenodd" d="M8.75 1.25H3.75C2.36929 1.25 1.25 2.36929 1.25 3.75V8.75C1.25 10.1307 2.36929 11.25 3.75 11.25C3.75 12.6307 4.86929 13.75 6.25 13.75H8.4375H11.25C12.6307 13.75 13.75 12.6307 13.75 11.25V6.25C13.75 4.86929 12.6307 3.75 11.25 3.75C11.25 2.36929 10.1307 1.25 8.75 1.25ZM11.25 5V8.75C11.25 10.1307 10.1307 11.25 8.75 11.25H5C5 11.9404 5.55964 12.5 6.25 12.5H8.4375H11.25C11.9404 12.5 12.5 11.9404 12.5 11.25V6.25C12.5 5.55964 11.9404 5 11.25 5ZM2.5 3.75C2.5 3.05964 3.05964 2.5 3.75 2.5H8.75C9.44036 2.5 10 3.05964 10 3.75V8.75C10 9.44036 9.44036 10 8.75 10H3.75C3.05964 10 2.5 9.44036 2.5 8.75V3.75Z" fill="#52585F"/>
</svg>
