<svg width="21" height="21" viewBox="0 0 21 21" fill="none" xmlns="http://www.w3.org/2000/svg">
<path d="M10.5 19.25C15.3325 19.25 19.25 15.3325 19.25 10.5C19.25 5.66751 15.3325 1.75 10.5 1.75C5.66751 1.75 1.75 5.66751 1.75 10.5C1.75 15.3325 5.66751 19.25 10.5 19.25Z" fill="#FF3300"/>
<path d="M11.7339 10.5002L13.7464 8.49641C13.9112 8.33165 14.0038 8.10818 14.0038 7.87516C14.0038 7.64215 13.9112 7.41868 13.7464 7.25391C13.5817 7.08915 13.3582 6.99658 13.1252 6.99658C12.8922 6.99658 12.6687 7.08915 12.5039 7.25391L10.5002 9.26641L8.49644 7.25391C8.33168 7.08915 8.1082 6.99658 7.87519 6.99658C7.64218 6.99658 7.41871 7.08915 7.25394 7.25391C7.08917 7.41868 6.99661 7.64215 6.99661 7.87516C6.99661 8.10818 7.08917 8.33165 7.25394 8.49641L9.26644 10.5002L7.25394 12.5039C7.17193 12.5853 7.10683 12.682 7.06241 12.7887C7.01799 12.8953 6.99512 13.0097 6.99512 13.1252C6.99512 13.2407 7.01799 13.355 7.06241 13.4617C7.10683 13.5683 7.17193 13.6651 7.25394 13.7464C7.33528 13.8284 7.43206 13.8935 7.53869 13.9379C7.64531 13.9824 7.75968 14.0052 7.87519 14.0052C7.9907 14.0052 8.10507 13.9824 8.2117 13.9379C8.31832 13.8935 8.4151 13.8284 8.49644 13.7464L10.5002 11.7339L12.5039 13.7464C12.5853 13.8284 12.6821 13.8935 12.7887 13.9379C12.8953 13.9824 13.0097 14.0052 13.1252 14.0052C13.2407 14.0052 13.3551 13.9824 13.4617 13.9379C13.5683 13.8935 13.6651 13.8284 13.7464 13.7464C13.8285 13.6651 13.8935 13.5683 13.938 13.4617C13.9824 13.355 14.0053 13.2407 14.0053 13.1252C14.0053 13.0097 13.9824 12.8953 13.938 12.7887C13.8935 12.682 13.8285 12.5853 13.7464 12.5039L11.7339 10.5002Z" fill="#EDEBEA"/>
</svg>
