<svg width="12" height="13" viewBox="0 0 12 13" fill="none" xmlns="http://www.w3.org/2000/svg">
<g clip-path="url(#clip0_99_4235)">
<path d="M9.9375 1.51389H7.875V1.13542C7.875 0.508335 7.37133 0 6.75 0H5.25C4.62867 0 4.125 0.508335 4.125 1.13542V1.51389H2.0625C1.54474 1.51389 1.125 1.93752 1.125 2.46007V3.21701C1.125 3.42605 1.29288 3.59549 1.5 3.59549H10.5C10.7071 3.59549 10.875 3.42605 10.875 3.21701V2.46007C10.875 1.93752 10.4553 1.51389 9.9375 1.51389ZM4.875 1.13542C4.875 0.926784 5.04328 0.756944 5.25 0.756944H6.75C6.95672 0.756944 7.125 0.926784 7.125 1.13542V1.51389H4.875V1.13542Z" fill="#FF6363"/>
<path d="M1.83593 4.35254C1.76902 4.35254 1.7157 4.40898 1.71889 4.47644L2.02826 11.0297C2.05685 11.6362 2.55045 12.1112 3.15185 12.1112H8.8467C9.4481 12.1112 9.9417 11.6362 9.97029 11.0297L10.2797 4.47644C10.2829 4.40898 10.2295 4.35254 10.1626 4.35254H1.83593ZM7.49928 5.29872C7.49928 5.08961 7.66709 4.92025 7.87428 4.92025C8.08146 4.92025 8.24928 5.08961 8.24928 5.29872V10.2189C8.24928 10.428 8.08146 10.5973 7.87428 10.5973C7.66709 10.5973 7.49928 10.428 7.49928 10.2189V5.29872ZM5.62428 5.29872C5.62428 5.08961 5.79209 4.92025 5.99928 4.92025C6.20646 4.92025 6.37428 5.08961 6.37428 5.29872V10.2189C6.37428 10.428 6.20646 10.5973 5.99928 10.5973C5.79209 10.5973 5.62428 10.428 5.62428 10.2189V5.29872ZM3.74928 5.29872C3.74928 5.08961 3.91709 4.92025 4.12428 4.92025C4.33146 4.92025 4.49928 5.08961 4.49928 5.29872V10.2189C4.49928 10.428 4.33146 10.5973 4.12428 10.5973C3.91709 10.5973 3.74928 10.428 3.74928 10.2189V5.29872Z" fill="#FF6363"/>
</g>
<defs>
<clipPath id="clip0_99_4235">
<rect width="12" height="12.1111" fill="white"/>
</clipPath>
</defs>
</svg>
