<svg width="24" height="24" viewBox="0 0 24 24" fill="none" xmlns="http://www.w3.org/2000/svg">
<path d="M7.81 22L16.19 22C19.83 22 22 19.83 22 16.19L22 7.82C22 4.17 19.83 2 16.19 2L7.82 2C4.18 2 2.01 4.17 2.01 7.81L2.01 16.19C2 19.83 4.17 22 7.81 22ZM15.53 15.02L12.53 18.02C12.46 18.09 12.38 18.14 12.29 18.18C12.11 18.26 11.9 18.26 11.72 18.18C11.63 18.14 11.55 18.09 11.48 18.02L8.48 15.02C8.19 14.73 8.19 14.25 8.48 13.96C8.63 13.81 8.82 13.74 9.01 13.74C9.2 13.74 9.39 13.81 9.54 13.96L11.26 15.68L11.26 9.49C11.26 9.08 11.6 8.74 12.01 8.74C12.42 8.74 12.76 9.08 12.76 9.49L12.76 15.68L14.48 13.96C14.77 13.67 15.25 13.67 15.54 13.96C15.6779 14.1026 15.7542 14.2937 15.7523 14.4921C15.7504 14.6904 15.6706 14.8801 15.53 15.02ZM5.76 6.78C7.77 6.11 9.88 5.77 12 5.77C14.12 5.77 16.23 6.11 18.24 6.78C18.4277 6.84444 18.5824 6.9804 18.6704 7.1583C18.7585 7.33621 18.7727 7.54167 18.71 7.73C18.58 8.12 18.15 8.34 17.76 8.2C14.04 6.96 9.95 6.96 6.23 8.2C5.84 8.33 5.41 8.12 5.28 7.73C5.16 7.33 5.37 6.91 5.76 6.78Z" fill="#32363A"/>
</svg>
