<svg width="21" height="21" viewBox="0 0 21 21" fill="none" xmlns="http://www.w3.org/2000/svg">
<path d="M13.1119 6.89725C13.0804 6.65454 13.0771 6.409 13.102 6.16553H2.95312C2.51805 6.16568 2.10084 6.33859 1.7932 6.64623C1.48556 6.95387 1.31266 7.37108 1.3125 7.80615V8.67896H13.837C13.4389 8.16141 13.1883 7.54573 13.1119 6.89725Z" fill="white"/>
<path d="M16.7147 3.50098C16.2954 3.50221 15.8811 3.59195 15.4989 3.76433C15.1168 3.93671 14.7753 4.18784 14.4968 4.50129C14.2184 4.81475 14.0092 5.18346 13.8831 5.5833C13.757 5.98315 13.7167 6.40513 13.7649 6.82162C14.298 10.4961 19.5802 10.1959 19.6875 6.47375C19.6871 5.68544 19.3737 4.92954 18.8163 4.37213C18.2589 3.81472 17.503 3.50139 16.7147 3.50098ZM16.7147 4.15723C17.2718 4.15789 17.8099 4.35927 18.2306 4.72447C18.6512 5.08967 18.9261 5.59422 19.005 6.14566H17.6466C17.5777 5.95418 17.4514 5.78863 17.2849 5.6716C17.1184 5.55457 16.9198 5.49177 16.7163 5.49178C16.5128 5.49178 16.3143 5.55459 16.1478 5.67162C15.9813 5.78865 15.855 5.95421 15.7861 6.1457L14.4244 6.14566C14.5033 5.59422 14.7782 5.08967 15.1988 4.72447C15.6195 4.35927 16.1576 4.15789 16.7147 4.15723ZM16.3866 8.7641C15.8913 8.69334 15.4322 8.46384 15.0784 8.11004C14.7246 7.75624 14.4951 7.29723 14.4244 6.80191H15.7861C15.8333 6.94141 15.9121 7.06814 16.0162 7.17228C16.1203 7.27642 16.2471 7.35515 16.3866 7.40238V8.7641ZM16.7147 6.8052C16.6278 6.80304 16.5452 6.76701 16.4845 6.70478C16.4238 6.64256 16.3898 6.55907 16.3898 6.47214C16.3898 6.38521 16.4238 6.30172 16.4845 6.2395C16.5452 6.17728 16.6278 6.14125 16.7147 6.1391C16.8016 6.14125 16.8842 6.17729 16.9449 6.23951C17.0057 6.30174 17.0396 6.38523 17.0396 6.47216C17.0396 6.55909 17.0056 6.64258 16.9449 6.7048C16.8842 6.76702 16.8016 6.80305 16.7147 6.8052ZM17.0428 8.7641V7.40238C17.1825 7.35474 17.3094 7.2759 17.414 7.17185C17.5186 7.06781 17.5982 6.94129 17.6466 6.80191H19.005C18.9345 7.29733 18.7051 7.75648 18.3512 8.11032C17.9974 8.46416 17.5382 8.69359 17.0428 8.7641Z" fill="white"/>
<path d="M16.3111 10.0798C15.6454 10.0065 15.0135 9.74853 14.4867 9.33496H1.3125V15.8581C1.31266 16.2932 1.48556 16.7104 1.7932 17.018C2.10084 17.3257 2.51805 17.4986 2.95312 17.4987H15.4022C15.8373 17.4986 16.2545 17.3257 16.5621 17.018C16.8698 16.7104 17.0427 16.2932 17.0428 15.8581V10.0864C16.7994 10.1109 16.554 10.1087 16.3111 10.0798ZM7.81594 15.8876C7.74261 15.981 7.64893 16.0565 7.54203 16.1082C7.43513 16.16 7.31783 16.1867 7.19906 16.1862H3.73078C3.61474 16.1864 3.50014 16.1606 3.39543 16.1105C3.29072 16.0605 3.19859 15.9876 3.12583 15.8972C3.05307 15.8068 3.00154 15.7012 2.97506 15.5883C2.94858 15.4753 2.94781 15.3578 2.97281 15.2445C3.06411 14.8735 3.23735 14.5277 3.4798 14.2324C3.72226 13.9372 4.02777 13.7 4.37391 13.5382C3.20545 12.5776 3.9363 10.5874 5.46659 10.6081C5.80545 10.6119 6.13521 10.7182 6.41245 10.9131C6.68969 11.108 6.90139 11.3823 7.01967 11.6998C7.13795 12.0174 7.15726 12.3633 7.07505 12.6921C6.99285 13.0209 6.81299 13.317 6.55916 13.5415C7.28038 13.8507 8.36735 15.0633 7.81594 15.8876ZM14.4539 15.53H9.17766C9.09148 15.5287 9.00926 15.4935 8.94877 15.4321C8.88828 15.3707 8.85437 15.288 8.85437 15.2018C8.85437 15.1156 8.88828 15.0329 8.94878 14.9715C9.00927 14.9101 9.09149 14.875 9.17767 14.8737H14.4539C14.5401 14.875 14.6223 14.9101 14.6828 14.9715C14.7433 15.0329 14.7772 15.1156 14.7772 15.2018C14.7772 15.288 14.7433 15.3708 14.6828 15.4322C14.6223 15.4935 14.5401 15.5287 14.4539 15.53ZM8.84953 13.3971C8.84979 13.3102 8.88444 13.2269 8.94592 13.1654C9.0074 13.1039 9.09071 13.0693 9.17766 13.069H13.1414C13.2284 13.069 13.3119 13.1036 13.3734 13.1651C13.435 13.2267 13.4695 13.3101 13.4695 13.3971C13.4695 13.4842 13.435 13.5676 13.3734 13.6292C13.3119 13.6907 13.2284 13.7253 13.1414 13.7253H9.17766C9.13452 13.7254 9.09179 13.717 9.05191 13.7006C9.01203 13.6842 8.9758 13.66 8.9453 13.6295C8.9148 13.599 8.89064 13.5628 8.8742 13.5229C8.85776 13.483 8.84938 13.4403 8.84953 13.3971ZM14.4539 11.9206H9.17766C9.09148 11.9193 9.00926 11.8842 8.94877 11.8228C8.88828 11.7614 8.85437 11.6786 8.85437 11.5925C8.85437 11.5063 8.88828 11.4235 8.94878 11.3621C9.00927 11.3007 9.09149 11.2656 9.17767 11.2643H14.4539C14.5401 11.2656 14.6223 11.3007 14.6828 11.3621C14.7433 11.4235 14.7772 11.5063 14.7772 11.5925C14.7772 11.6787 14.7433 11.7614 14.6828 11.8228C14.6223 11.8842 14.5401 11.9193 14.4539 11.9206Z" fill="white"/>
<path d="M5.46659 13.9517C5.03955 13.9499 4.62436 14.0921 4.28801 14.3552C3.95166 14.6183 3.71376 14.9871 3.61268 15.402C3.61007 15.4185 3.61124 15.4355 3.61611 15.4515C3.62097 15.4675 3.6294 15.4823 3.64077 15.4946C3.65213 15.5069 3.66613 15.5165 3.68173 15.5226C3.69732 15.5287 3.7141 15.5312 3.73081 15.53H7.19909C7.21834 15.53 7.23739 15.526 7.25493 15.518C7.27248 15.5101 7.28813 15.4985 7.30081 15.484C7.24444 14.6022 6.32664 13.9469 5.46659 13.9517Z" fill="white"/>
<path d="M5.46635 13.2957C5.73341 13.2923 5.98836 13.1838 6.17598 12.9937C6.36361 12.8036 6.46881 12.5473 6.4688 12.2802C6.4688 12.0131 6.36359 11.7568 6.17596 11.5667C5.98833 11.3766 5.73338 11.2681 5.46632 11.2646C5.19926 11.2681 4.94431 11.3766 4.75669 11.5667C4.56906 11.7568 4.46386 12.0131 4.46387 12.2802C4.46387 12.5473 4.56908 12.8036 4.75671 12.9937C4.94434 13.1838 5.19929 13.2923 5.46635 13.2957Z" fill="white"/>
</svg>
