<svg width="32" height="32" viewBox="0 0 32 32" fill="none" xmlns="http://www.w3.org/2000/svg">
<path d="M13.667 13.3735C13.667 14.0935 13.867 14.2002 14.3203 14.3602L15.0003 14.6002V12.3335H14.6003C14.0937 12.3335 13.667 12.8002 13.667 13.3735ZM17.0003 19.6668H17.4003C17.9203 19.6668 18.3337 19.2002 18.3337 18.6268C18.3337 17.9068 18.1337 17.8002 17.6803 17.6402L17.0003 17.4002V19.6668Z" fill="black"/>
<path d="M13.667 13.3735C13.667 14.0935 13.867 14.2002 14.3203 14.3602L15.0003 14.6002V12.3335H14.6003C14.0937 12.3335 13.667 12.8002 13.667 13.3735ZM17.0003 19.6668H17.4003C17.9203 19.6668 18.3337 19.2002 18.3337 18.6268C18.3337 17.9068 18.1337 17.8002 17.6803 17.6402L17.0003 17.4002V19.6668Z" fill="url(#paint0_linear_99_3019)"/>
<path d="M26.107 7.3065L23.3737 10.0398C23.1737 10.2398 22.9203 10.3332 22.667 10.3332C22.4137 10.3332 22.1603 10.2398 21.9603 10.0398C21.7743 9.85165 21.6701 9.59774 21.6701 9.33317C21.6701 9.0686 21.7743 8.81469 21.9603 8.6265L24.6937 5.89317C22.347 3.89317 19.3203 2.6665 16.0003 2.6665C8.64033 2.6665 2.66699 8.63984 2.66699 15.9998C2.66699 23.3598 8.64033 29.3332 16.0003 29.3332C23.3603 29.3332 29.3337 23.3598 29.3337 15.9998C29.3337 12.6798 28.107 9.65317 26.107 7.3065ZM18.3337 15.7598C19.187 16.0665 20.3337 16.6798 20.3337 18.6398C20.3337 20.3065 19.0137 21.6798 17.4003 21.6798H17.0003V22.0132C17.0003 22.5598 16.547 23.0132 16.0003 23.0132C15.4537 23.0132 15.0003 22.5598 15.0003 22.0132V21.6798H14.8937C13.1203 21.6798 11.667 20.1865 11.667 18.3465C11.667 17.7865 12.1203 17.3332 12.667 17.3332C13.2137 17.3332 13.667 17.7865 13.667 18.3332C13.667 19.0665 14.2137 19.6665 14.8937 19.6665H15.0003V16.7065L13.667 16.2398C12.8137 15.9332 11.667 15.3198 11.667 13.3598C11.667 11.6932 12.987 10.3198 14.6003 10.3198H15.0003V9.99984C15.0003 9.45317 15.4537 8.99984 16.0003 8.99984C16.547 8.99984 17.0003 9.45317 17.0003 9.99984V10.3332H17.107C18.8803 10.3332 20.3337 11.8265 20.3337 13.6665C20.3337 14.2132 19.8803 14.6665 19.3337 14.6665C18.787 14.6665 18.3337 14.2132 18.3337 13.6665C18.3337 12.9332 17.787 12.3332 17.107 12.3332H17.0003V15.2932L18.3337 15.7598ZM30.2537 2.27984C30.1482 2.0343 29.9525 1.83861 29.707 1.73317C29.5871 1.69057 29.4609 1.66805 29.3337 1.6665H24.0003C23.4537 1.6665 23.0003 2.11984 23.0003 2.6665C23.0003 3.21317 23.4537 3.6665 24.0003 3.6665H26.9203L24.6937 5.89317C25.2003 6.33317 25.667 6.79984 26.107 7.3065L28.3337 5.07984V7.99984C28.3337 8.5465 28.787 8.99984 29.3337 8.99984C29.8803 8.99984 30.3337 8.5465 30.3337 7.99984V2.6665C30.3337 2.53317 30.307 2.41317 30.2537 2.27984Z" fill="black"/>
<path d="M26.107 7.3065L23.3737 10.0398C23.1737 10.2398 22.9203 10.3332 22.667 10.3332C22.4137 10.3332 22.1603 10.2398 21.9603 10.0398C21.7743 9.85165 21.6701 9.59774 21.6701 9.33317C21.6701 9.0686 21.7743 8.81469 21.9603 8.6265L24.6937 5.89317C22.347 3.89317 19.3203 2.6665 16.0003 2.6665C8.64033 2.6665 2.66699 8.63984 2.66699 15.9998C2.66699 23.3598 8.64033 29.3332 16.0003 29.3332C23.3603 29.3332 29.3337 23.3598 29.3337 15.9998C29.3337 12.6798 28.107 9.65317 26.107 7.3065ZM18.3337 15.7598C19.187 16.0665 20.3337 16.6798 20.3337 18.6398C20.3337 20.3065 19.0137 21.6798 17.4003 21.6798H17.0003V22.0132C17.0003 22.5598 16.547 23.0132 16.0003 23.0132C15.4537 23.0132 15.0003 22.5598 15.0003 22.0132V21.6798H14.8937C13.1203 21.6798 11.667 20.1865 11.667 18.3465C11.667 17.7865 12.1203 17.3332 12.667 17.3332C13.2137 17.3332 13.667 17.7865 13.667 18.3332C13.667 19.0665 14.2137 19.6665 14.8937 19.6665H15.0003V16.7065L13.667 16.2398C12.8137 15.9332 11.667 15.3198 11.667 13.3598C11.667 11.6932 12.987 10.3198 14.6003 10.3198H15.0003V9.99984C15.0003 9.45317 15.4537 8.99984 16.0003 8.99984C16.547 8.99984 17.0003 9.45317 17.0003 9.99984V10.3332H17.107C18.8803 10.3332 20.3337 11.8265 20.3337 13.6665C20.3337 14.2132 19.8803 14.6665 19.3337 14.6665C18.787 14.6665 18.3337 14.2132 18.3337 13.6665C18.3337 12.9332 17.787 12.3332 17.107 12.3332H17.0003V15.2932L18.3337 15.7598ZM30.2537 2.27984C30.1482 2.0343 29.9525 1.83861 29.707 1.73317C29.5871 1.69057 29.4609 1.66805 29.3337 1.6665H24.0003C23.4537 1.6665 23.0003 2.11984 23.0003 2.6665C23.0003 3.21317 23.4537 3.6665 24.0003 3.6665H26.9203L24.6937 5.89317C25.2003 6.33317 25.667 6.79984 26.107 7.3065L28.3337 5.07984V7.99984C28.3337 8.5465 28.787 8.99984 29.3337 8.99984C29.8803 8.99984 30.3337 8.5465 30.3337 7.99984V2.6665C30.3337 2.53317 30.307 2.41317 30.2537 2.27984Z" fill="url(#paint1_linear_99_3019)"/>
<defs>
<linearGradient id="paint0_linear_99_3019" x1="13.5242" y1="13.2065" x2="17.9101" y2="20.5943" gradientUnits="userSpaceOnUse">
<stop stop-color="#2F76FF"/>
<stop offset="1" stop-color="#085BF8"/>
</linearGradient>
<linearGradient id="paint1_linear_99_3019" x1="1.82057" y1="4.96015" x2="14.2828" y2="37.9475" gradientUnits="userSpaceOnUse">
<stop stop-color="#2F76FF"/>
<stop offset="1" stop-color="#085BF8"/>
</linearGradient>
</defs>
</svg>
