<svg width="12" height="12" viewBox="0 0 12 12" fill="none" xmlns="http://www.w3.org/2000/svg">
<path d="M9.47413 0.37793C9.27763 0.37793 9.08075 0.451805 8.933 0.59993L8.09 1.44293L10.5575 3.90968L11.3998 3.06668C11.6953 2.77118 11.6953 2.27955 11.3998 1.98405L10.0153 0.59993C9.86751 0.451805 9.67063 0.37793 9.47413 0.37793ZM7.55938 1.97318L1.45851 8.07443C1.41763 8.1153 1.38688 8.16556 1.36776 8.22106C1.09438 9.04118 0.604631 10.3807 0.392756 11.1472C0.317381 11.4209 0.561506 11.6759 0.838256 11.6122C1.75026 11.4014 2.97088 10.9012 3.77826 10.6323C3.83301 10.6143 3.88363 10.5839 3.92526 10.5438L10.0261 4.44068L7.55938 1.97318Z" fill="#3C4043"/>
</svg>
