<svg width="24" height="24" viewBox="0 0 24 24" fill="none" xmlns="http://www.w3.org/2000/svg">
<path d="M20.25 21C20.1515 21.0001 20.054 20.9808 19.963 20.9431C19.872 20.9053 19.7893 20.85 19.7199 20.7801L3.21986 4.28013C3.08515 4.13833 3.01115 3.94952 3.01366 3.75395C3.01616 3.55838 3.09497 3.37152 3.23327 3.23322C3.37157 3.09492 3.55842 3.01612 3.754 3.01361C3.94957 3.01111 4.13838 3.0851 4.28018 3.21982L20.7802 19.7198C20.885 19.8247 20.9564 19.9583 20.9853 20.1038C21.0142 20.2492 20.9993 20.3999 20.9426 20.5369C20.8859 20.6739 20.7898 20.791 20.6665 20.8735C20.5432 20.9559 20.3983 20.9999 20.25 21ZM11.9841 18C10.0392 18 8.16377 17.4243 6.40971 16.289C4.81268 15.2578 3.37502 13.7808 2.25189 12.0234V12.0197C3.18658 10.6804 4.21033 9.54794 5.31002 8.63482C5.31997 8.6265 5.32808 8.61621 5.33385 8.6046C5.33962 8.59298 5.34292 8.5803 5.34353 8.56735C5.34415 8.5544 5.34207 8.54146 5.33743 8.52935C5.33279 8.51724 5.32569 8.50623 5.31658 8.497L4.38283 7.56466C4.36624 7.54793 4.34396 7.53806 4.32042 7.53702C4.29688 7.53598 4.27381 7.54384 4.2558 7.55903C3.08768 8.54341 2.00346 9.75091 1.01768 11.1647C0.848075 11.4081 0.754669 11.6964 0.749327 11.9931C0.743985 12.2897 0.826949 12.5812 0.987676 12.8306C2.22564 14.7679 3.81893 16.3997 5.59455 17.5486C7.59377 18.8437 9.74533 19.5 11.9841 19.5C13.1925 19.4962 14.3924 19.2971 15.5372 18.9103C15.5523 18.9052 15.5659 18.8963 15.5766 18.8845C15.5873 18.8726 15.5948 18.8583 15.5984 18.8427C15.602 18.8272 15.6016 18.811 15.5972 18.7957C15.5928 18.7803 15.5846 18.7664 15.5733 18.7551L14.5617 17.7436C14.5385 17.7208 14.5097 17.7046 14.4782 17.6964C14.4467 17.6881 14.4136 17.6883 14.3822 17.6967C13.5988 17.8984 12.793 18.0003 11.9841 18ZM23.0081 11.1843C21.7678 9.26622 20.1586 7.63685 18.3549 6.472C16.3594 5.182 14.1563 4.49997 11.9841 4.49997C10.7885 4.50209 9.60175 4.7054 8.47361 5.10138C8.45858 5.10661 8.44513 5.11558 8.43452 5.12745C8.42392 5.13931 8.41651 5.15368 8.41299 5.1692C8.40947 5.18473 8.40997 5.20089 8.41442 5.21616C8.41888 5.23144 8.42715 5.24534 8.43846 5.25653L9.44861 6.26669C9.47213 6.28981 9.50133 6.30631 9.53326 6.31454C9.56519 6.32277 9.59873 6.32244 9.63049 6.31357C10.3978 6.10599 11.1892 6.00055 11.9841 5.99997C13.8914 5.99997 15.7613 6.58263 17.5411 7.73435C19.1681 8.78435 20.6227 10.26 21.7486 12C21.7495 12.001 21.7499 12.0024 21.7499 12.0037C21.7499 12.0051 21.7495 12.0064 21.7486 12.0075C20.9313 13.2942 19.9171 14.4446 18.743 15.4167C18.7329 15.425 18.7247 15.4353 18.7189 15.4469C18.713 15.4585 18.7096 15.4713 18.709 15.4843C18.7083 15.4973 18.7104 15.5103 18.715 15.5225C18.7197 15.5346 18.7268 15.5457 18.736 15.555L19.6688 16.4873C19.6853 16.504 19.7074 16.5139 19.7309 16.515C19.7543 16.5161 19.7773 16.5084 19.7953 16.4934C21.0488 15.438 22.1338 14.1975 23.0128 12.8147C23.1682 12.571 23.2504 12.2878 23.2495 11.9988C23.2487 11.7098 23.1649 11.4271 23.0081 11.1843Z" fill="#32363A"/>
<path d="M12 7.5C11.6629 7.49982 11.3269 7.53756 10.9983 7.6125C10.9817 7.61595 10.9663 7.62383 10.9538 7.63531C10.9414 7.64679 10.9322 7.66144 10.9274 7.6777C10.9226 7.69395 10.9223 7.71121 10.9265 7.72763C10.9307 7.74405 10.9393 7.75901 10.9514 7.77094L16.229 13.0472C16.241 13.0592 16.2559 13.0678 16.2723 13.0721C16.2888 13.0763 16.306 13.076 16.3223 13.0712C16.3385 13.0663 16.3532 13.0572 16.3647 13.0447C16.3761 13.0323 16.384 13.0169 16.3875 13.0003C16.5377 12.3413 16.5376 11.6568 16.3871 10.9979C16.2365 10.3389 15.9395 9.72228 15.5179 9.19385C15.0964 8.66542 14.5613 8.23874 13.9522 7.9455C13.3432 7.65226 12.6759 7.49999 12 7.5ZM7.77091 10.9528C7.75899 10.9408 7.74402 10.9322 7.7276 10.9279C7.71118 10.9237 7.69392 10.924 7.67767 10.9289C7.66141 10.9337 7.64676 10.9428 7.63528 10.9553C7.6238 10.9677 7.61592 10.9831 7.61247 10.9997C7.44248 11.7424 7.46382 12.516 7.67451 13.2482C7.88519 13.9803 8.27832 14.647 8.81704 15.1857C9.35577 15.7245 10.0224 16.1176 10.7546 16.3283C11.4868 16.539 12.2604 16.5603 13.0031 16.3903C13.0197 16.3869 13.0351 16.379 13.0475 16.3675C13.06 16.356 13.0691 16.3414 13.0739 16.3251C13.0787 16.3089 13.0791 16.2916 13.0748 16.2752C13.0706 16.2588 13.062 16.2438 13.05 16.2319L7.77091 10.9528Z" fill="#32363A"/>
</svg>
