<svg width="16" height="16" viewBox="0 0 16 16" fill="none" xmlns="http://www.w3.org/2000/svg">
<path d="M7.34065 13.3468C8.93372 13.3468 10.4615 12.714 11.588 11.5875C12.7145 10.4611 13.3473 8.93323 13.3473 7.34016C13.3473 5.7471 12.7145 4.21928 11.588 3.09281C10.4615 1.96634 8.93372 1.3335 7.34065 1.3335C5.74758 1.3335 4.21976 1.96634 3.0933 3.09281C1.96683 4.21928 1.33398 5.7471 1.33398 7.34016C1.33398 8.93323 1.96683 10.4611 3.0933 11.5875C4.21976 12.714 5.74758 13.3468 7.34065 13.3468ZM14.6607 12.6335C14.4406 12.2268 13.974 12.0002 13.3473 12.0002C12.874 12.0002 12.4673 12.1935 12.2273 12.5268C11.9873 12.8602 11.934 13.3068 12.0807 13.7535C12.3673 14.6202 12.8673 14.8135 13.1406 14.8468C13.1806 14.8535 13.2206 14.8535 13.2673 14.8535C13.5606 14.8535 14.014 14.7268 14.454 14.0668C14.8073 13.5535 14.874 13.0402 14.6607 12.6335Z" fill="#3C4043"/>
</svg>
