<svg width="21" height="21" viewBox="0 0 21 21" fill="none" xmlns="http://www.w3.org/2000/svg">
<g clip-path="url(#clip0_132_1755)">
<path d="M18.5937 2.625H2.4063C1.0789 2.625 0 3.7039 0 5.0313V15.9687C0 17.2961 1.0789 18.375 2.4063 18.375H18.5937C19.9211 18.375 21 17.2961 21 15.9687V5.0313C21 3.7039 19.9211 2.625 18.5937 2.625V2.625ZM6.5625 6.12495C7.7683 6.12495 8.74995 7.10676 8.74995 8.31255C8.74995 9.51819 7.7683 10.5 6.5625 10.5C5.3567 10.5 4.37505 9.51819 4.37505 8.31255C4.37505 7.10676 5.3567 6.12495 6.5625 6.12495ZM10.5 14.2188C10.5 14.5811 10.206 14.8751 9.84375 14.8751H3.28125C2.919 14.8751 2.625 14.5811 2.625 14.2188V13.7812C2.625 12.4538 3.7039 11.3749 5.0313 11.3749H8.0937C9.4211 11.3749 10.5 12.4538 10.5 13.7812V14.2188ZM17.7188 14.8751H12.9063C12.5441 14.8751 12.2501 14.5811 12.2501 14.2188C12.2501 13.8566 12.5441 13.5626 12.9063 13.5626H17.7188C18.081 13.5626 18.375 13.8566 18.375 14.2188C18.375 14.5811 18.081 14.8751 17.7188 14.8751ZM17.7188 11.3749H12.9063C12.5441 11.3749 12.2501 11.0809 12.2501 10.7187C12.2501 10.3564 12.5441 10.0624 12.9063 10.0624H17.7188C18.081 10.0624 18.375 10.3564 18.375 10.7187C18.375 11.0809 18.081 11.3749 17.7188 11.3749ZM17.7188 7.875H12.9063C12.5441 7.875 12.2501 7.581 12.2501 7.21875C12.2501 6.8565 12.5441 6.5625 12.9063 6.5625H17.7188C18.081 6.5625 18.375 6.8565 18.375 7.21875C18.375 7.581 18.081 7.875 17.7188 7.875Z" fill="white"/>
</g>
<defs>
<clipPath id="clip0_132_1755">
<rect width="21" height="21" fill="white"/>
</clipPath>
</defs>
</svg>
