<svg width="123" height="136" viewBox="0 0 123 136" fill="none" xmlns="http://www.w3.org/2000/svg">
<g clip-path="url(#clip0_807_563)">
<rect width="123" height="136" rx="10" fill="#292C2F"/>
<path d="M89.5946 157.648V101.684L80.517 97.4313L78.0532 84.3457H45.9471L43.4833 97.4313L34.6982 101.547V157.648H89.5946Z" fill="#E2B48A"/>
<path d="M127.372 163.765L125.027 133.787C124.645 128.901 122.975 124.204 120.187 120.174C117.398 116.143 113.591 112.925 109.153 110.845L83.9595 99.042V106.332H81.0883V110.159H38.8245V99.6135L14.8468 110.845C10.4083 112.924 6.60039 116.143 3.81116 120.173C1.02193 124.203 -0.648871 128.901 -1.03095 133.787L-3.37256 163.765H127.372Z" fill="#BAC2D3"/>
<path d="M65.7485 110.243H53.6812L51.3828 115.602L58.3089 124.416L54.2824 143.744L61.9935 160.451L70.6329 142.481L67.0137 124.056L72.498 115.039L65.7485 110.243Z" fill="#DA2A47"/>
<path d="M125.028 133.788C124.647 128.902 122.976 124.204 120.187 120.174C117.399 116.144 113.591 112.925 109.153 110.846L86.1937 100.087C84.3211 110.749 79.8749 120.521 75.0436 130.144C72.8032 134.607 70.7035 139.055 68.7273 143.632C67.625 146.169 61.9999 160.99 61.9999 160.99C61.9999 160.99 52.8804 138.29 51.2201 133.987C48.9699 128.15 47.238 122.077 44.2558 116.556C43.7448 115.609 43.2053 114.678 42.6511 113.754C37.5778 111.762 34.9696 107.459 35.0659 101.372L14.8468 110.846C10.4083 112.925 6.60039 116.143 3.81116 120.174C1.02193 124.204 -0.648871 128.901 -1.03095 133.788L-3.37256 163.766H127.372L125.028 133.788Z" fill="#707583"/>
<path d="M125.028 133.788C124.647 128.902 122.976 124.204 120.187 120.174C117.399 116.144 113.591 112.925 109.153 110.846L86.1937 100.087C84.3211 110.749 79.8749 120.521 75.0436 130.144C72.8032 134.607 70.7035 139.055 68.7273 143.632C67.625 146.169 61.9999 160.99 61.9999 160.99C61.9999 160.99 52.8804 138.29 51.2201 133.987C48.9699 128.15 47.238 122.077 44.2558 116.556C43.7448 115.609 43.2053 114.678 42.6511 113.754C37.5778 111.762 34.9696 107.459 35.0659 101.372L14.8468 110.846C10.4083 112.925 6.60039 116.143 3.81116 120.174C1.02193 124.204 -0.648871 128.901 -1.03095 133.788L-3.37256 163.766H127.372L125.028 133.788Z" fill="#384868"/>
<path d="M127.373 163.765H109.672L107.327 133.782C106.941 128.897 105.268 124.201 102.477 120.172C99.6867 116.143 95.8785 112.926 91.4403 110.848L84.4414 107.564C85.155 105.104 85.736 102.607 86.1819 100.084L109.154 110.848C113.59 112.927 117.397 116.145 120.185 120.173C122.973 124.202 124.644 128.898 125.028 133.782L127.373 163.765Z" fill="#2F3A5A"/>
<path d="M96.9932 67.4456C98.3035 61.8481 96.8266 56.716 93.6945 55.9829C90.5624 55.2497 86.9611 59.193 85.6508 64.7905C84.3405 70.3881 85.8174 75.5201 88.9495 76.2533C92.0816 76.9865 95.6829 73.0432 96.9932 67.4456Z" fill="#E2B48A"/>
<path d="M34.8596 76.2984C37.9917 75.5652 39.4685 70.4332 38.1582 64.8356C36.8479 59.2381 33.2466 55.2947 30.1145 56.0279C26.9824 56.7611 25.5056 61.8932 26.8159 67.4907C28.1262 73.0882 31.7275 77.0316 34.8596 76.2984Z" fill="#E2B48A"/>
<path d="M61.8807 95.5558C78.1256 95.5558 91.2946 77.4051 91.2946 55.0152C91.2946 32.6252 78.1256 14.4746 61.8807 14.4746C45.6359 14.4746 32.4668 32.6252 32.4668 55.0152C32.4668 77.4051 45.6359 95.5558 61.8807 95.5558Z" fill="#F0C191"/>
<path d="M89.4487 69C89.4487 69 99.836 50.4412 97.5857 35.7225C95.3355 21.0038 85.4197 16.3577 79.5281 16.3577C79.5281 16.3577 71.5762 4.58295 51.9262 9.38591C32.2762 14.1889 24.375 35.767 28.0929 49.3797C31.8108 62.9923 34.2895 69.2457 34.2895 69.2457C34.2895 69.2457 31.8108 51.841 34.5993 42.2314C37.3877 32.6218 45.7543 25.0341 49.0082 27.6658C52.262 30.2975 73.0217 29.4247 76.4298 23.5923C80.9072 26.8733 83.9041 31.793 84.7655 37.2766C85.8765 46.1073 90.8374 51.5299 90.3733 57.8808C89.9092 64.2317 89.4487 69 89.4487 69Z" fill="#2F3A5A"/>
<path d="M79.6701 92.8916L62 110.158L77.7728 120.997L85.1544 99.5794L79.6701 92.8916Z" fill="#D9E2E9"/>
<path d="M38.8457 99.5794L46.842 120.497L62.0001 110.158L44.33 92.8916L38.8457 99.5794Z" fill="#D9E2E9"/>
<path d="M89.7541 101.758L79.6705 92.8911L79.6495 92.8701C79.6495 92.8701 79.4656 119.36 61.998 160.451C44.5266 119.36 44.3464 92.8701 44.3464 92.8701L44.3254 92.8911L34.2431 101.758L32.4668 116.747L40.8272 115.41L34.5578 124.914C38.1931 133.77 62.0005 161.42 62.0005 161.42C65.7468 157.284 86.3695 133.408 89.5801 125.582L83.1675 115.41L92.5253 115.676L89.7541 101.758Z" fill="#43567C"/>
</g>
<defs>
<clipPath id="clip0_807_563">
<rect width="123" height="136" rx="10" fill="white"/>
</clipPath>
</defs>
</svg>
