<svg width="24" height="24" viewBox="0 0 24 24" fill="none" xmlns="http://www.w3.org/2000/svg">
<path d="M8.37988 11.998L10.7899 14.418L15.6199 9.578" stroke="#32363A" stroke-width="1.5" stroke-linecap="round" stroke-linejoin="round"/>
<path d="M4.23988 6.198C4.23988 5.138 5.10988 4.268 6.16988 4.268H7.89988C8.29988 4.268 8.85988 4.058 9.15988 3.808L10.7399 2.458C11.4399 1.868 12.5699 1.868 13.2499 2.458L14.8299 3.808C15.1299 4.058 15.6999 4.268 16.0999 4.268H17.7999C18.8599 4.268 19.7299 5.138 19.7299 6.198V7.898C19.7299 8.298 19.9399 8.858 20.1899 9.158L21.5399 10.738C22.1299 11.438 22.1299 12.568 21.5399 13.248L20.1899 14.828C19.9399 15.128 19.7299 15.688 19.7299 16.088V17.788C19.7299 18.848 18.8599 19.718 17.7999 19.718H16.0999C15.6999 19.718 15.1399 19.928 14.8399 20.178L13.2599 21.528C12.5599 22.118 11.4299 22.118 10.7499 21.528L9.16988 20.178C8.86988 19.928 8.29988 19.718 7.90988 19.718H6.16988C5.10988 19.718 4.23988 18.848 4.23988 17.788V16.078C4.23988 15.688 4.03988 15.118 3.78988 14.828L2.43988 13.238C1.85988 12.548 1.85988 11.428 2.43988 10.738L2.99988 10.078" stroke="#32363A" stroke-width="1.5" stroke-linecap="round" stroke-linejoin="round"/>
</svg>
