<svg width="16" height="16" viewBox="0 0 16 16" fill="none" xmlns="http://www.w3.org/2000/svg">
<path fill-rule="evenodd" clip-rule="evenodd" d="M7.33301 1.3335H3.99967C2.52701 1.3335 1.33301 2.5275 1.33301 4.00016V12.0002C1.33301 13.4728 2.52701 14.6668 3.99967 14.6668H11.9997C13.4723 14.6668 14.6663 13.4728 14.6663 12.0002C14.6663 10.4862 14.6663 8.66683 14.6663 8.66683C14.6663 8.29883 14.3677 8.00016 13.9997 8.00016C13.6317 8.00016 13.333 8.29883 13.333 8.66683V12.0002C13.333 12.7362 12.7357 13.3335 11.9997 13.3335C9.77967 13.3335 6.21901 13.3335 3.99967 13.3335C3.26301 13.3335 2.66634 12.7362 2.66634 12.0002C2.66634 9.78016 2.66634 6.2195 2.66634 4.00016C2.66634 3.2635 3.26301 2.66683 3.99967 2.66683H7.33301C7.70101 2.66683 7.99967 2.36816 7.99967 2.00016C7.99967 1.63216 7.70101 1.3335 7.33301 1.3335ZM12.3903 2.66683H9.99967C9.63167 2.66683 9.33301 2.36816 9.33301 2.00016C9.33301 1.63216 9.63167 1.3335 9.99967 1.3335H13.9997C14.3677 1.3335 14.6663 1.63216 14.6663 2.00016V6.00016C14.6663 6.36816 14.3677 6.66683 13.9997 6.66683C13.6317 6.66683 13.333 6.36816 13.333 6.00016V3.6095L8.47101 8.4715C8.21101 8.7315 7.78834 8.7315 7.52834 8.4715C7.26767 8.2115 7.26767 7.78883 7.52834 7.52883L12.3903 2.66683Z" fill="#3C4043"/>
</svg>
