<svg width="23" height="23" viewBox="0 0 23 23" fill="none" xmlns="http://www.w3.org/2000/svg">
<g clip-path="url(#clip0_99_4370)">
<path d="M11.6007 11.3636C14.0022 11.3636 15.9492 8.99886 15.9492 6.08175C15.9492 3.16457 15.31 0.799805 11.6007 0.799805C7.89131 0.799805 7.25195 3.16457 7.25195 6.08175C7.25195 8.99886 9.19898 11.3636 11.6007 11.3636Z" fill="#C7D5EB"/>
<path d="M11.6007 11.3636C14.0022 11.3636 15.9492 8.99886 15.9492 6.08175C15.9492 3.16457 15.31 0.799805 11.6007 0.799805C7.89131 0.799805 7.25195 3.16457 7.25195 6.08175C7.25195 8.99886 9.19898 11.3636 11.6007 11.3636Z" fill="url(#paint0_linear_99_4370)"/>
<path d="M19.8145 19.5673C19.8153 19.2295 19.8168 19.5186 19.8145 19.5673V19.5673Z" fill="white"/>
<path d="M19.8044 19.2153C19.7239 14.1336 19.0602 12.6856 13.9815 11.769C13.9815 11.769 13.2666 12.68 11.6003 12.68C9.93405 12.68 9.21903 11.769 9.21903 11.769C4.19579 12.6756 3.49176 14.1022 3.39919 19.0502C3.39159 19.4543 3.38808 19.4755 3.38672 19.4286C3.38703 19.5165 3.3874 19.679 3.3874 19.9625C3.3874 19.9625 4.5965 22.3999 11.6003 22.3999C18.604 22.3999 19.8133 19.9625 19.8133 19.9625C19.8133 19.7804 19.8134 19.6537 19.8136 19.5676C19.8122 19.5966 19.8095 19.5404 19.8044 19.2153Z" fill="#BDCBE1"/>
<path d="M19.8044 19.2153C19.7239 14.1336 19.0602 12.6856 13.9815 11.769C13.9815 11.769 13.2666 12.68 11.6003 12.68C9.93405 12.68 9.21903 11.769 9.21903 11.769C4.19579 12.6756 3.49176 14.1022 3.39919 19.0502C3.39159 19.4543 3.38808 19.4755 3.38672 19.4286C3.38703 19.5165 3.3874 19.679 3.3874 19.9625C3.3874 19.9625 4.5965 22.3999 11.6003 22.3999C18.604 22.3999 19.8133 19.9625 19.8133 19.9625C19.8133 19.7804 19.8134 19.6537 19.8136 19.5676C19.8122 19.5966 19.8095 19.5404 19.8044 19.2153Z" fill="url(#paint1_linear_99_4370)"/>
</g>
<defs>
<linearGradient id="paint0_linear_99_4370" x1="9.09065" y1="1.91179" x2="18.8715" y2="6.13324" gradientUnits="userSpaceOnUse">
<stop stop-color="#3077FF"/>
<stop offset="1" stop-color="#085BF8"/>
</linearGradient>
<linearGradient id="paint1_linear_99_4370" x1="6.85954" y1="12.8881" x2="20.0916" y2="23.6067" gradientUnits="userSpaceOnUse">
<stop stop-color="#3077FF"/>
<stop offset="1" stop-color="#085BF8"/>
</linearGradient>
<clipPath id="clip0_99_4370">
<rect width="21.6" height="21.6" fill="white" transform="translate(0.800781 0.799805)"/>
</clipPath>
</defs>
</svg>
