<svg width="28" height="27" viewBox="0 0 28 27" fill="none" xmlns="http://www.w3.org/2000/svg">
<path d="M21.9998 0H5.99984C3.05432 0 0.666504 2.38781 0.666504 5.33333V21.3333C0.666504 24.2789 3.05432 26.6667 5.99984 26.6667H21.9998C24.9454 26.6667 27.3332 24.2789 27.3332 21.3333V5.33333C27.3332 2.38781 24.9454 0 21.9998 0Z" fill="white" fill-opacity="0.1"/>
<path d="M15.7604 13.3324L18.6313 10.4735C18.8663 10.2384 18.9984 9.91953 18.9984 9.58706C18.9984 9.2546 18.8663 8.93575 18.6313 8.70066C18.3962 8.46557 18.0775 8.3335 17.7451 8.3335C17.4127 8.3335 17.0939 8.46557 16.8588 8.70066L14.0005 11.5721L11.1421 8.70066C10.9071 8.46557 10.5883 8.3335 10.2559 8.3335C9.92352 8.3335 9.60474 8.46557 9.3697 8.70066C9.13466 8.93575 9.00262 9.2546 9.00262 9.58706C9.00262 9.91953 9.13466 10.2384 9.3697 10.4735L12.2405 13.3324L9.3697 16.1914C9.25271 16.3075 9.15985 16.4455 9.09648 16.5977C9.03311 16.7498 9.00049 16.913 9.00049 17.0778C9.00049 17.2426 9.03311 17.4058 9.09648 17.5579C9.15985 17.7101 9.25271 17.8481 9.3697 17.9642C9.48574 18.0812 9.62379 18.1741 9.77589 18.2375C9.92799 18.3009 10.0911 18.3335 10.2559 18.3335C10.4207 18.3335 10.5838 18.3009 10.7359 18.2375C10.888 18.1741 11.0261 18.0812 11.1421 17.9642L14.0005 15.0928L16.8588 17.9642C16.9749 18.0812 17.1129 18.1741 17.265 18.2375C17.4171 18.3009 17.5803 18.3335 17.7451 18.3335C17.9098 18.3335 18.073 18.3009 18.2251 18.2375C18.3772 18.1741 18.5152 18.0812 18.6313 17.9642C18.7483 17.8481 18.8411 17.7101 18.9045 17.5579C18.9679 17.4058 19.0005 17.2426 19.0005 17.0778C19.0005 16.913 18.9679 16.7498 18.9045 16.5977C18.8411 16.4455 18.7483 16.3075 18.6313 16.1914L15.7604 13.3324Z" fill="#FF3300"/>
</svg>
