<svg width="21" height="21" viewBox="0 0 21 21" fill="none" xmlns="http://www.w3.org/2000/svg">
<g clip-path="url(#clip0_132_1774)">
<path d="M9.81669 11.0647C10.084 11.7449 10.3776 11.9984 10.4999 11.9984C10.6222 11.9984 10.9159 11.7449 11.1831 11.0647C11.4303 10.4354 11.5916 9.59992 11.6429 8.7085H9.35693C9.40819 9.59988 9.56949 10.4353 9.81669 11.0647Z" fill="white"/>
<path d="M8.68944 11.5525C8.36868 10.753 8.17892 9.74573 8.12516 8.7085H6.64355C6.84004 9.945 7.61895 10.9899 8.68944 11.5525Z" fill="white"/>
<path d="M8.68948 4.63428C7.61899 5.19687 6.84004 6.24176 6.64355 7.47831H8.12517C8.17896 6.44103 8.36876 5.43378 8.68948 4.63428Z" fill="white"/>
<path d="M12.3105 11.5525C13.3811 10.9899 14.16 9.945 14.3565 8.7085H12.8749C12.8211 9.74573 12.6313 10.753 12.3105 11.5525Z" fill="white"/>
<path d="M11.1831 5.12218C10.9159 4.44195 10.6223 4.18848 10.4999 4.18848C10.3776 4.18848 10.084 4.44199 9.81673 5.12222C9.56953 5.75152 9.40823 6.58702 9.35693 7.47844H11.6429C11.5916 6.58702 11.4303 5.75152 11.1831 5.12218Z" fill="white"/>
<path d="M16.4266 0H2.41113V21H16.4266C17.619 21 18.5891 20.0299 18.5891 18.8375V2.16253C18.5891 0.970109 17.619 0 16.4266 0V0ZM13.6774 18.2763H7.3229V17.0462H13.6774V18.2763ZM14.8254 15.841H6.17484V14.611H14.8254V15.841ZM10.5001 13.2283C7.66867 13.2283 5.36509 10.9248 5.36509 8.09332C5.36509 5.26188 7.66867 2.95822 10.5001 2.95822C13.3316 2.95822 15.6352 5.26184 15.6352 8.09328C15.6352 10.9247 13.3316 13.2283 10.5001 13.2283Z" fill="white"/>
<path d="M14.3565 7.47831C14.16 6.24176 13.3811 5.19687 12.3105 4.63428C12.6313 5.43378 12.8211 6.44103 12.8748 7.47831H14.3565Z" fill="white"/>
</g>
<defs>
<clipPath id="clip0_132_1774">
<rect width="21" height="21" fill="white"/>
</clipPath>
</defs>
</svg>
