<svg width="19" height="19" viewBox="0 0 19 19" fill="none" xmlns="http://www.w3.org/2000/svg">
<path d="M16.7283 4.54338H14.7457L13.6511 2.89121C13.238 2.27164 12.5152 1.8999 11.7717 1.8999H7.22826C6.48478 1.8999 5.76196 2.27164 5.34891 2.89121L4.25435 4.54338H2.27174C1.01196 4.54338 0 5.55534 0 6.81512V14.8282C0 16.0879 1.01196 17.0999 2.27174 17.0999H16.7283C17.988 17.0999 19 16.0879 19 14.8282V6.81512C19 5.55534 17.988 4.54338 16.7283 4.54338ZM9.5 15.2412C6.67065 15.2412 4.37826 12.9488 4.37826 10.1195C4.37826 7.29012 6.67065 5.01838 9.5 5.01838C12.3293 5.01838 14.6217 7.31077 14.6217 10.1401C14.6217 12.9488 12.3293 15.2412 9.5 15.2412ZM16.4391 7.74447C16.4185 7.74447 16.3978 7.74447 16.3565 7.74447H15.5304C15.1587 7.72381 14.8696 7.41403 14.8902 7.04229C14.9109 6.69121 15.1793 6.42273 15.5304 6.40208H16.3565C16.7283 6.38142 17.038 6.67055 17.0587 7.04229C17.0793 7.41403 16.8109 7.72381 16.4391 7.74447Z" fill="white"/>
<path d="M9.50039 7.29004C7.93083 7.29004 6.65039 8.57047 6.65039 10.14C6.65039 11.7096 7.93083 12.9694 9.50039 12.9694C11.07 12.9694 12.3504 11.689 12.3504 10.1194C12.3504 8.54982 11.07 7.29004 9.50039 7.29004Z" fill="white"/>
</svg>
