<svg width="24" height="24" viewBox="0 0 24 24" fill="none" xmlns="http://www.w3.org/2000/svg">
<path d="M10.4319 2.42C11.4019 1.86 12.6019 1.86 13.5819 2.42L19.5219 5.85C20.4919 6.41 21.0919 7.45 21.0919 8.58V15.42C21.0919 16.54 20.4919 17.58 19.5219 18.15L13.5819 21.58C12.6119 22.14 11.4119 22.14 10.4319 21.58L4.49188 18.15C4.01365 17.8727 3.61681 17.4745 3.34123 16.9953C3.06564 16.5161 2.92102 15.9728 2.92188 15.42V8.58C2.92188 7.46 3.52188 6.42 4.49188 5.85L6.39188 4.75" stroke="#32363A" stroke-width="1.5" stroke-linecap="round" stroke-linejoin="round"/>
<path d="M10.4319 2.42C11.4019 1.86 12.6019 1.86 13.5819 2.42L19.5219 5.85C20.4919 6.41 21.0919 7.45 21.0919 8.58V15.42C21.0919 16.54 20.4919 17.58 19.5219 18.15L13.5819 21.58C12.6119 22.14 11.4119 22.14 10.4319 21.58L4.49188 18.15C4.01365 17.8727 3.61681 17.4745 3.34123 16.9953C3.06564 16.5161 2.92102 15.9728 2.92188 15.42V8.58C2.92188 7.46 3.52188 6.42 4.49188 5.85L6.39188 4.75" stroke="url(#paint0_linear_76_653)" stroke-width="1.5" stroke-linecap="round" stroke-linejoin="round"/>
<path d="M16 16.658C16 14.858 14.21 13.398 12 13.398C9.79 13.398 8 14.858 8 16.658M12.002 11C12.62 11 13.2126 10.7545 13.6496 10.3176C14.0865 9.88063 14.332 9.28798 14.332 8.67003C14.332 8.05207 14.0865 7.45943 13.6496 7.02247C13.2126 6.58551 12.62 6.34003 12.002 6.34003C11.384 6.34003 10.7914 6.58551 10.3544 7.02247C9.91748 7.45943 9.672 8.05207 9.672 8.67003C9.672 9.28798 9.91748 9.88063 10.3544 10.3176C10.7914 10.7545 11.384 11 12.002 11Z" stroke="#32363A" stroke-width="1.5" stroke-linecap="round" stroke-linejoin="round"/>
<path d="M16 16.658C16 14.858 14.21 13.398 12 13.398C9.79 13.398 8 14.858 8 16.658M12.002 11C12.62 11 13.2126 10.7545 13.6496 10.3176C14.0865 9.88063 14.332 9.28798 14.332 8.67003C14.332 8.05207 14.0865 7.45943 13.6496 7.02247C13.2126 6.58551 12.62 6.34003 12.002 6.34003C11.384 6.34003 10.7914 6.58551 10.3544 7.02247C9.91748 7.45943 9.672 8.05207 9.672 8.67003C9.672 9.28798 9.91748 9.88063 10.3544 10.3176C10.7914 10.7545 11.384 11 12.002 11Z" stroke="url(#paint1_linear_76_653)" stroke-width="1.5" stroke-linecap="round" stroke-linejoin="round"/>
<defs>
<linearGradient id="paint0_linear_76_653" x1="2.36599" y1="4.38095" x2="12.0269" y2="27.6133" gradientUnits="userSpaceOnUse">
<stop stop-color="#2F76FF"/>
<stop offset="1" stop-color="#085BF8"/>
</linearGradient>
<linearGradient id="paint1_linear_76_653" x1="7.75525" y1="7.56836" x2="13.2909" y2="18.9293" gradientUnits="userSpaceOnUse">
<stop stop-color="#2F76FF"/>
<stop offset="1" stop-color="#085BF8"/>
</linearGradient>
</defs>
</svg>
