<svg width="22" height="22" viewBox="0 0 22 22" fill="none" xmlns="http://www.w3.org/2000/svg">
<path d="M3.26978 5.41997C2.67978 3.51997 3.73978 2.46997 5.62978 3.08997L8.57978 4.05997C9.07978 4.21997 9.82978 4.10997 10.2498 3.79997L13.3298 1.57997C14.9998 0.37997 16.3298 1.07997 16.2898 3.12997L16.2198 6.91997C16.2098 7.43997 16.5398 8.12997 16.9598 8.43997L19.4398 10.32C21.0298 11.52 20.7698 12.99 18.8698 13.59L15.6398 14.6C15.0998 14.77 14.5298 15.36 14.3898 15.91L13.6198 18.85C13.0098 21.17 11.4898 21.4 10.2298 19.36L8.46978 16.51C8.14978 15.99 7.38978 15.6 6.78978 15.63L3.44978 15.8C1.05978 15.92 0.379782 14.54 1.93978 12.72L3.91978 10.42C4.10978 10.2 4.23978 9.89997 4.30978 9.57997M20.9098 20.999L17.8798 17.969" stroke="#32363A" stroke-width="1.5" stroke-linecap="round" stroke-linejoin="round"/>
</svg>
