<svg width="17" height="17" viewBox="0 0 17 17" fill="none" xmlns="http://www.w3.org/2000/svg">
<path d="M14.0781 2.125H11.1562V1.59375C11.1562 0.713535 10.4427 0 9.5625 0H7.4375C6.55729 0 5.84375 0.713535 5.84375 1.59375V2.125H2.92188C2.18838 2.125 1.59375 2.71963 1.59375 3.45312V4.51562C1.59375 4.80904 1.83158 5.04688 2.125 5.04688H14.875C15.1684 5.04688 15.4062 4.80904 15.4062 4.51562V3.45312C15.4062 2.71963 14.8116 2.125 14.0781 2.125ZM6.90625 1.59375C6.90625 1.3009 7.14465 1.0625 7.4375 1.0625H9.5625C9.85535 1.0625 10.0938 1.3009 10.0938 1.59375V2.125H6.90625V1.59375Z" fill="#FF6363"/>
<path d="M2.60156 6.10938C2.50676 6.10938 2.43122 6.1886 2.43574 6.28329L2.87402 15.482C2.91453 16.3333 3.61379 17 4.46578 17H12.5335C13.3855 17 14.0847 16.3333 14.1252 15.482L14.5635 6.28329C14.568 6.1886 14.4925 6.10938 14.3977 6.10938H2.60156ZM10.6246 7.4375C10.6246 7.14398 10.8624 6.90625 11.1559 6.90625C11.4494 6.90625 11.6871 7.14398 11.6871 7.4375V14.3438C11.6871 14.6373 11.4494 14.875 11.1559 14.875C10.8624 14.875 10.6246 14.6373 10.6246 14.3438V7.4375ZM7.96838 7.4375C7.96838 7.14398 8.20611 6.90625 8.49963 6.90625C8.79314 6.90625 9.03088 7.14398 9.03088 7.4375V14.3438C9.03088 14.6373 8.79314 14.875 8.49963 14.875C8.20611 14.875 7.96838 14.6373 7.96838 14.3438V7.4375ZM5.31213 7.4375C5.31213 7.14398 5.54986 6.90625 5.84338 6.90625C6.13689 6.90625 6.37463 7.14398 6.37463 7.4375V14.3438C6.37463 14.6373 6.13689 14.875 5.84338 14.875C5.54986 14.875 5.31213 14.6373 5.31213 14.3438V7.4375Z" fill="#FF6363"/>
</svg>
