<svg width="24" height="24" viewBox="0 0 24 24" fill="none" xmlns="http://www.w3.org/2000/svg">
<path d="M12 22C17.523 22 22 17.523 22 12C22 6.477 17.523 2 12 2C6.477 2 2 6.477 2 12C2 17.523 6.477 22 12 22Z" stroke="#3C4043" stroke-width="1.5" stroke-linecap="round" stroke-linejoin="round"/>
<path d="M8.00984 14.51C8.18984 14.81 8.40984 15.09 8.65984 15.34C9.54677 16.2237 10.7478 16.7199 11.9998 16.7199C13.2519 16.7199 14.4529 16.2237 15.3398 15.34C16.0571 14.6162 16.5202 13.6793 16.6598 12.67M7.33984 11.33C7.47984 10.35 7.90984 9.40998 8.65984 8.65998C9.54677 7.77624 10.7478 7.28003 11.9998 7.28003C13.2519 7.28003 14.4529 7.77624 15.3398 8.65998C15.5998 8.91998 15.8098 9.19998 15.9898 9.48998" stroke="#3C4043" stroke-width="1.5" stroke-linecap="round" stroke-linejoin="round"/>
<path d="M7.82031 17.18V14.51H10.4903M16.1803 6.82001V9.49001H13.5103" stroke="#3C4043" stroke-width="1.5" stroke-linecap="round" stroke-linejoin="round"/>
</svg>
