<svg width="24" height="24" viewBox="0 0 24 24" fill="none" xmlns="http://www.w3.org/2000/svg">
<path d="M2 6.74101C2 3.37101 2.84 2.53101 6.21 2.53101H16.74C20.11 2.53101 20.95 3.37101 20.95 6.74101M10 16.952H6.21C2.84 16.952 2 16.112 2 12.742V10.852M10 16.95V21.47L6.74 21.469M2 12.95H10M22 12.8C22 10.43 21.41 9.84001 19.04 9.84001H15.49C13.12 9.84001 12.53 10.43 12.53 12.8V18.51C12.53 20.88 13.12 21.47 15.49 21.47H19.04C21.41 21.47 22 20.88 22 18.51V16.94" stroke="#32363A" stroke-width="1.5" stroke-linecap="round" stroke-linejoin="round"/>
<path d="M17.2441 18.25H17.2541" stroke="#32363A" stroke-width="2" stroke-linecap="round" stroke-linejoin="round"/>
</svg>
