<svg width="150" height="150" viewBox="0 0 150 150" fill="none" xmlns="http://www.w3.org/2000/svg">
<path d="M142.023 87.4228L141.98 87.4445C136.838 91.3876 134.659 98.0974 136.49 104.307L136.511 104.35C139.43 114.219 132.198 124.175 121.915 124.436H121.871C115.379 124.611 109.671 128.75 107.514 134.872V134.893C104.072 144.61 92.3518 148.422 83.8771 142.562C78.6148 138.968 71.6582 138.781 66.1217 142.562H66.1C57.6256 148.4 45.9048 144.609 42.4844 134.871C40.3083 128.734 34.6088 124.61 28.1278 124.436H28.0841C17.8015 124.175 10.5684 114.219 13.4878 104.35L13.5095 104.306C15.3391 98.0971 13.1606 91.3873 8.01958 87.4442L7.97593 87.4225C-0.193799 81.148 -0.193799 68.8612 7.97593 62.587L8.01958 62.5653C13.1606 58.6222 15.3391 51.9121 13.4878 45.7032V45.6595C10.5464 35.7909 17.8012 25.8346 28.0841 25.5733H28.1278C34.598 25.399 40.3276 21.2596 42.4844 15.1381V15.1164C45.9045 5.40007 57.6256 1.58767 66.1 7.44821H66.1217C71.459 11.13 78.5175 11.13 83.8771 7.44821C92.4371 1.53698 104.092 5.45837 107.514 15.1164V15.1381C109.671 21.238 115.379 25.3993 121.871 25.5733H121.915C132.198 25.8346 139.43 35.7909 136.511 45.6595L136.49 45.7032C134.659 51.9121 136.838 58.6222 141.98 62.5653L142.023 62.587C150.193 68.8612 150.193 81.1483 142.023 87.4228Z" fill="#2471EB"/>
<path d="M142.023 87.4228L141.98 87.4445C136.838 91.3876 134.659 98.0974 136.49 104.307L136.511 104.35C139.43 114.219 132.198 124.175 121.915 124.436H121.871C115.379 124.611 109.671 128.75 107.514 134.872V134.893C104.072 144.61 92.3518 148.422 83.8771 142.562C78.6148 138.968 71.6582 138.781 66.1217 142.562H66.1C57.6256 148.4 45.9048 144.609 42.4844 134.871C40.3083 128.734 34.6088 124.61 28.1278 124.436H28.0841C17.8015 124.175 10.5684 114.219 13.4878 104.35L13.5095 104.306C15.3391 98.0971 13.1606 91.3873 8.01958 87.4442L7.97593 87.4225C-0.193799 81.148 -0.193799 68.8612 7.97593 62.587L8.01958 62.5653C13.1606 58.6222 15.3391 51.9121 13.4878 45.7032V45.6595C10.5464 35.7909 17.8012 25.8346 28.0841 25.5733H28.1278C34.598 25.399 40.3276 21.2596 42.4844 15.1381V15.1164C45.9045 5.40007 57.6256 1.58767 66.1 7.44821H66.1217C71.459 11.13 78.5175 11.13 83.8771 7.44821C92.4371 1.53698 104.092 5.45837 107.514 15.1164V15.1381C109.671 21.238 115.379 25.3993 121.871 25.5733H121.915C132.198 25.8346 139.43 35.7909 136.511 45.6595L136.49 45.7032C134.659 51.9121 136.838 58.6222 141.98 62.5653L142.023 62.587C150.193 68.8612 150.193 81.1483 142.023 87.4228Z" fill="url(#paint0_linear_168_3756)"/>
<path d="M75.0001 115.581C97.4124 115.581 115.581 97.412 115.581 74.9996C115.581 52.5873 97.4124 34.4185 75.0001 34.4185C52.5877 34.4185 34.4189 52.5873 34.4189 74.9996C34.4189 97.412 52.5877 115.581 75.0001 115.581Z" fill="url(#paint1_linear_168_3756)"/>
<g opacity="0.1">
<path d="M106.158 49.023C99.1389 43.2486 90.1585 39.7778 80.3687 39.7778C57.9565 39.7778 39.7778 57.9565 39.7778 80.3686C39.7778 90.1585 43.2486 99.1389 49.0228 106.158C40.1045 98.7188 34.4238 87.5282 34.4238 74.9991C34.4238 52.5867 52.587 34.4238 74.9991 34.4238C87.5282 34.4238 98.7188 40.1045 106.158 49.023Z" fill="white"/>
<path d="M106.158 49.023C99.1389 43.2486 90.1585 39.7778 80.3687 39.7778C57.9565 39.7778 39.7778 57.9565 39.7778 80.3686C39.7778 90.1585 43.2486 99.1389 49.0228 106.158C40.1045 98.7188 34.4238 87.5282 34.4238 74.9991C34.4238 52.5867 52.587 34.4238 74.9991 34.4238C87.5282 34.4238 98.7188 40.1045 106.158 49.023Z" fill="url(#paint2_linear_168_3756)"/>
</g>
<path d="M65.3448 90.8862L56.3708 81.3389C54.0206 78.8382 54.1419 74.9062 56.6418 72.556C59.1417 70.2029 63.0754 70.3292 65.4236 72.8282L69.7074 77.3839L87.9162 56.5719C90.1733 53.9891 94.099 53.7272 96.6839 55.9875C99.2667 58.2477 99.5275 62.1723 97.2684 64.7551L74.5472 90.7224C72.1267 93.486 67.8549 93.5584 65.3448 90.8862Z" fill="white"/>
<defs>
<linearGradient id="paint0_linear_168_3756" x1="151.564" y1="41.618" x2="-3.30531" y2="54.1312" gradientUnits="userSpaceOnUse">
<stop stop-color="#246CF9"/>
<stop offset="0.0001" stop-color="#3177FF"/>
<stop offset="1" stop-color="#075AF8"/>
</linearGradient>
<linearGradient id="paint1_linear_168_3756" x1="64" y1="31" x2="55.9222" y2="105.991" gradientUnits="userSpaceOnUse">
<stop stop-color="#246CF9"/>
<stop offset="0.0001" stop-color="#3177FF"/>
<stop offset="1" stop-color="#075AF8"/>
</linearGradient>
<linearGradient id="paint2_linear_168_3756" x1="67.5" y1="40" x2="20.6071" y2="71.8046" gradientUnits="userSpaceOnUse">
<stop stop-color="#246CF9"/>
<stop offset="0.0001" stop-color="#3177FF"/>
<stop offset="1" stop-color="#D1E1FF"/>
</linearGradient>
</defs>
</svg>
