<svg width="25" height="24" viewBox="0 0 25 24" fill="none" xmlns="http://www.w3.org/2000/svg">
<path d="M-7.44689e-07 6.96351L-3.04908e-07 17.0245C-1.13881e-07 21.3947 2.6053 24 6.97548 24L17.0245 24C21.4067 24 24.012 21.3947 24.012 17.0245L24.012 6.97552C24.012 2.60534 21.4067 4.1026e-05 17.0365 4.1217e-05L6.97547 4.16568e-05C2.6053 -0.0119649 -9.35715e-07 2.59333 -7.44689e-07 6.96351ZM18.009 13.2066C18.129 13.2066 18.2371 13.2306 18.3571 13.2787C18.5733 13.3747 18.7533 13.5428 18.8494 13.7709C18.8979 13.8806 18.9229 13.9992 18.9229 14.1191C18.9229 14.239 18.8979 14.3576 18.8494 14.4673C18.8039 14.5745 18.7388 14.6722 18.6573 14.7554L15.1155 18.2972C14.9461 18.4646 14.7174 18.5585 14.4792 18.5585C14.241 18.5585 14.0123 18.4646 13.8429 18.2972C13.4947 17.949 13.4947 17.3727 13.8429 17.0245L15.8479 15.0195L6.00299 15.0195C5.51075 15.0195 5.10254 14.6113 5.10254 14.1191C5.10254 13.6268 5.51075 13.2066 6.00299 13.2066L18.009 13.2066ZM10.1811 5.70288C10.3612 5.88297 10.4452 6.11109 10.4452 6.3392C10.4452 6.56731 10.3612 6.79543 10.1811 6.97552L8.17607 8.98052L18.009 8.98051C18.5012 8.98051 18.9094 9.38872 18.9094 9.88096C18.9094 10.3732 18.5012 10.7814 18.009 10.7814L6.00299 10.7814C5.88293 10.7814 5.77488 10.7574 5.65482 10.7094C5.43871 10.6133 5.25862 10.4452 5.16257 10.2171C5.06652 10.001 5.06652 9.7489 5.16257 9.53279C5.2106 9.42474 5.27063 9.32869 5.35467 9.24465L8.89643 5.70288C9.25661 5.35471 9.8329 5.35471 10.1811 5.70288Z" fill="#22282F"/>
</svg>
