<svg width="32" height="32" viewBox="0 0 32 32" fill="none" xmlns="http://www.w3.org/2000/svg">
<path d="M11.9999 2.6665C8.50661 2.6665 5.66661 5.5065 5.66661 8.99984C5.66661 12.4265 8.34661 15.1998 11.8399 15.3198C11.9466 15.3065 12.0533 15.3065 12.1333 15.3198H12.2266C13.8658 15.2651 15.4194 14.5751 16.559 13.3957C17.6986 12.2163 18.3349 10.6399 18.3333 8.99984C18.3333 5.5065 15.4933 2.6665 11.9999 2.6665ZM18.7733 18.8652C15.0533 16.3852 8.98661 16.3852 5.23995 18.8652C3.54661 19.9985 2.61328 21.5318 2.61328 23.1718C2.61328 24.8118 3.54661 26.3318 5.22661 27.4518C7.09328 28.7052 9.54661 29.3318 11.9999 29.3318C14.4533 29.3318 16.9066 28.7052 18.7733 27.4518C20.4533 26.3185 21.3866 24.7985 21.3866 23.1452C21.3733 21.5052 20.4533 19.9852 18.7733 18.8652ZM26.6533 9.78384C26.8666 12.3705 25.0266 14.6372 22.4799 14.9438H22.4133C22.3333 14.9438 22.2533 14.9438 22.1866 14.9705C20.8933 15.0372 19.7066 14.6238 18.8133 13.8638C20.1866 12.6372 20.9733 10.7972 20.8133 8.79717C20.7218 7.75718 20.3686 6.75725 19.7866 5.8905C20.4853 5.55061 21.2561 5.38579 22.0327 5.41026C22.8092 5.43474 23.5682 5.64777 24.244 6.03097C24.9199 6.41418 25.4924 6.95606 25.9121 7.60987C26.3319 8.26369 26.5862 9.00979 26.6533 9.78384Z" fill="url(#paint0_linear_99_3001)"/>
<path d="M29.3171 22.1199C29.2104 23.4132 28.3837 24.5332 26.9971 25.2932C25.6637 26.0265 23.9837 26.3732 22.3171 26.3332C23.2771 25.4665 23.8371 24.3865 23.9437 23.2399C24.0771 21.5865 23.2904 19.9999 21.7171 18.7332C20.8237 18.0265 19.7837 17.4665 18.6504 17.0532C21.5971 16.1999 25.3037 16.7732 27.5837 18.6132C28.8104 19.5999 29.4371 20.8399 29.3171 22.1199Z" fill="#2670FE"/>
<defs>
<linearGradient id="paint0_linear_99_3001" x1="1.87729" y1="5.84095" x2="14.8213" y2="36.7518" gradientUnits="userSpaceOnUse">
<stop stop-color="#2F76FF"/>
<stop offset="1" stop-color="#085BF8"/>
</linearGradient>
</defs>
</svg>
