<svg width="24" height="24" viewBox="0 0 24 24" fill="none" xmlns="http://www.w3.org/2000/svg">
<path d="M23.5299 12.048C23.3888 11.9085 23.1984 11.8303 22.9999 11.8303C22.8015 11.8303 22.6111 11.9085 22.4699 12.048L22.0099 12.508V11.998C22.0099 6.47798 17.5199 1.98798 11.9999 1.98798C8.94994 1.98798 6.09994 3.35798 4.18994 5.73798C3.92994 6.05798 3.97994 6.53798 4.30994 6.79798C4.62994 7.04798 5.09994 6.99798 5.35994 6.67798C6.15538 5.68092 7.16559 4.87624 8.31527 4.32391C9.46495 3.77158 10.7245 3.48584 11.9999 3.48798C16.6899 3.48798 20.5099 7.30798 20.5099 11.998V12.498L20.0499 12.038C19.9088 11.8985 19.7184 11.8203 19.5199 11.8203C19.3215 11.8203 19.1311 11.8985 18.9899 12.038C18.6999 12.328 18.6999 12.808 18.9899 13.098L20.7299 14.838C20.872 14.9763 21.0617 15.0551 21.2599 15.058C21.4587 15.0575 21.6492 14.9784 21.7899 14.838L23.5299 13.098C23.8199 12.818 23.8199 12.338 23.5299 12.048ZM19.6899 17.2C19.6136 17.1377 19.5256 17.0914 19.4311 17.0637C19.3366 17.0359 19.2375 17.0274 19.1396 17.0386C19.0418 17.0498 18.9472 17.0804 18.8613 17.1288C18.7755 17.1771 18.7002 17.2421 18.6399 17.32C17.8445 18.317 16.8343 19.1217 15.6846 19.674C14.5349 20.2264 13.2754 20.5121 11.9999 20.51C7.30994 20.51 3.48994 16.69 3.48994 12V11.5L3.94994 11.96C4.09994 12.11 4.28994 12.18 4.47994 12.18C4.66994 12.18 4.85994 12.1 4.99994 11.95C5.28994 11.66 5.28994 11.18 4.99994 10.89L3.26994 9.14998C3.19994 9.08998 3.10994 9.02998 3.01994 8.98998C2.93013 8.95042 2.83308 8.92999 2.73494 8.92999C2.63681 8.92999 2.53975 8.95042 2.44994 8.98998C2.35994 9.02998 2.27994 9.08998 2.20994 9.14998L0.469941 10.89C0.179941 11.18 0.179941 11.66 0.469941 11.95C0.759941 12.24 1.23994 12.24 1.52994 11.95L1.98994 11.49V12C1.98994 17.52 6.47994 22.01 11.9999 22.01C15.0499 22.01 17.8999 20.64 19.8099 18.26C19.8722 18.1827 19.9185 18.0939 19.9462 17.9986C19.9739 17.9033 19.9824 17.8035 19.9713 17.7049C19.9601 17.6063 19.9295 17.5109 19.8812 17.4243C19.8329 17.3376 19.7679 17.2613 19.6899 17.2Z" fill="#32363A"/>
<path d="M15.45 11.64C15.72 11.24 15.87 10.77 15.87 10.25C15.87 8.92 14.7 7.75 13.37 7.75H12.55V6.75C12.55 6.34 12.21 6 11.8 6C11.39 6 11.05 6.34 11.05 6.75V7.75H9C8.59 7.75 8.25 8.09 8.25 8.5V15.5C8.25 15.91 8.59 16.25 9 16.25H11.05V17.25C11.05 17.66 11.39 18 11.8 18C12.21 18 12.55 17.66 12.55 17.25V16.25H14C15.52 16.25 16.75 15.13 16.75 13.75C16.75 12.86 16.23 12.08 15.45 11.64ZM9.75 9.25H13.37C13.92 9.25 14.37 9.8 14.37 10.25C14.37 10.8 13.92 11.25 13.37 11.25H9.75V9.25ZM14 14.75H9.75V12.75H14C14.69 12.75 15.25 13.2 15.25 13.75C15.25 14.3 14.69 14.75 14 14.75Z" fill="#32363A"/>
</svg>
