<svg width="24" height="24" viewBox="0 0 24 24" fill="none" xmlns="http://www.w3.org/2000/svg">
<path d="M9.32 13.2809H12.41V20.4809C12.41 21.5409 13.73 22.0409 14.43 21.2409L22 12.6409C22.66 11.8909 22.13 10.7209 21.13 10.7209H18.04V3.52095C18.04 2.46095 16.72 1.96095 16.02 2.76095L8.45 11.3609C7.8 12.1109 8.33 13.2809 9.32 13.2809ZM8.5 4.74995H1.5C1.09 4.74995 0.75 4.40995 0.75 3.99995C0.75 3.58995 1.09 3.24995 1.5 3.24995H8.5C8.91 3.24995 9.25 3.58995 9.25 3.99995C9.25 4.40995 8.91 4.74995 8.5 4.74995ZM7.5 20.7499H1.5C1.09 20.7499 0.75 20.4099 0.75 19.9999C0.75 19.5899 1.09 19.2499 1.5 19.2499H7.5C7.91 19.2499 8.25 19.5899 8.25 19.9999C8.25 20.4099 7.91 20.7499 7.5 20.7499ZM4.5 12.7499H1.5C1.09 12.7499 0.75 12.4099 0.75 11.9999C0.75 11.5899 1.09 11.2499 1.5 11.2499H4.5C4.91 11.2499 5.25 11.5899 5.25 11.9999C5.25 12.4099 4.91 12.7499 4.5 12.7499Z" fill="#32363A"/>
</svg>
