<svg width="21" height="21" viewBox="0 0 21 21" fill="none" xmlns="http://www.w3.org/2000/svg">
<path d="M11.5413 5.25H5.94125C5.71375 5.25 5.495 5.25875 5.285 5.285C2.93125 5.48625 1.75 6.8775 1.75 9.44125V12.9412C1.75 16.4412 3.15 17.1325 5.94125 17.1325H6.29125C6.48375 17.1325 6.7375 17.2638 6.85125 17.4125L7.90125 18.8125C8.365 19.4338 9.1175 19.4338 9.58125 18.8125L10.6313 17.4125C10.7625 17.2375 10.9725 17.1325 11.1913 17.1325H11.5413C14.105 17.1325 15.4963 15.96 15.6975 13.5975C15.7238 13.3875 15.7325 13.1687 15.7325 12.9412V9.44125C15.7325 6.65 14.3325 5.25 11.5413 5.25ZM5.6875 12.25C5.1975 12.25 4.8125 11.8562 4.8125 11.375C4.8125 10.8938 5.20625 10.5 5.6875 10.5C6.16875 10.5 6.5625 10.8938 6.5625 11.375C6.5625 11.8562 6.16875 12.25 5.6875 12.25ZM8.74125 12.25C8.25125 12.25 7.86625 11.8562 7.86625 11.375C7.86625 10.8938 8.26 10.5 8.74125 10.5C9.2225 10.5 9.61625 10.8938 9.61625 11.375C9.61625 11.8562 9.23125 12.25 8.74125 12.25ZM11.8038 12.25C11.3138 12.25 10.9288 11.8562 10.9288 11.375C10.9288 10.8938 11.3225 10.5 11.8038 10.5C12.285 10.5 12.6788 10.8938 12.6788 11.375C12.6788 11.8562 12.285 12.25 11.8038 12.25Z" fill="#32363A"/>
<path d="M19.2322 5.94125V9.44125C19.2322 11.1912 18.6897 12.3812 17.6047 13.0375C17.3422 13.195 17.036 12.985 17.036 12.6788L17.0447 9.44125C17.0447 5.94125 15.041 3.9375 11.541 3.9375L6.21223 3.94625C5.90598 3.94625 5.69598 3.64 5.85348 3.3775C6.50973 2.2925 7.69973 1.75 9.44098 1.75H15.041C17.8322 1.75 19.2322 3.15 19.2322 5.94125Z" fill="#32363A"/>
</svg>
