<svg width="21" height="21" viewBox="0 0 21 21" fill="none" xmlns="http://www.w3.org/2000/svg">
<path d="M16.3889 12.8372L12.7576 16.4684C12.6176 16.6084 12.4864 16.8797 12.4514 17.0722L12.2501 18.4634C12.1801 18.9622 12.5301 19.3209 13.0289 19.2422L14.4201 19.0409C14.6126 19.0147 14.8839 18.8747 15.0239 18.7347L18.6551 15.1034C19.2764 14.4822 19.5739 13.7472 18.6551 12.8284C17.7451 11.9184 17.0189 12.2072 16.3889 12.8372Z" fill="#32363A"/>
<path d="M15.8725 13.3543C16.0253 13.8965 16.3147 14.3904 16.713 14.7887C17.1114 15.1871 17.6053 15.4765 18.1475 15.6293L15.8725 13.3543ZM1.77625 12.8004C1.77625 12.8266 1.75875 12.8616 1.75875 12.8879C2.56362 14.5021 3.87202 15.8105 5.48625 16.6154C5.5125 16.6154 5.5475 16.5979 5.57375 16.5979C5.27625 15.5829 5.04875 14.5416 4.8825 13.5004C3.8325 13.3254 2.79125 13.0979 1.77625 12.8004ZM16.6862 5.62713C15.866 3.90569 14.4789 2.51858 12.7575 1.69838C13.0725 2.73963 13.335 3.80713 13.51 4.87463C14.5775 5.04963 15.645 5.30338 16.6862 5.62713ZM1.68875 5.62625C2.73875 5.31125 3.80625 5.04875 4.87375 4.87375C5.04875 3.8325 5.2675 2.8 5.565 1.785C5.53875 1.785 5.50375 1.7675 5.4775 1.7675C3.8325 2.58125 2.49375 3.955 1.68875 5.62625ZM12.0925 4.69C11.8825 3.5525 11.62 2.415 11.2437 1.3125C11.2262 1.25125 11.2262 1.19875 11.2175 1.12875C10.57 0.97125 9.8875 0.875 9.1875 0.875C8.47875 0.875 7.805 0.97125 7.14875 1.1375C7.14 1.19875 7.14875 1.25125 7.13125 1.32125C6.76375 2.42375 6.4925 3.5525 6.2825 4.69C8.21625 4.48 10.1587 4.48 12.0925 4.69ZM4.69 6.2825C3.54375 6.4925 2.42375 6.76375 1.3125 7.13125C1.25125 7.14875 1.19875 7.14875 1.1375 7.1575C0.97125 7.805 0.875 8.4875 0.875 9.1875C0.875 9.89625 0.97125 10.57 1.1375 11.2263C1.19875 11.235 1.25125 11.2263 1.32125 11.2438C2.42375 11.6113 3.5525 11.8825 4.69875 12.0925C4.48 10.1588 4.48 8.21625 4.69 6.2825ZM17.2375 7.1575C17.1763 7.1575 17.1237 7.14875 17.0537 7.13125C15.9512 6.76375 14.8137 6.4925 13.6762 6.2825C13.895 8.21625 13.895 10.1588 13.6762 12.0838C14.8137 11.8738 15.9512 11.6113 17.0537 11.235C17.115 11.2175 17.1675 11.2263 17.2375 11.2175C17.395 10.5613 17.5 9.8875 17.5 9.17875C17.5 8.4875 17.4037 7.81375 17.2375 7.1575ZM6.2825 13.6841C6.4925 14.8304 6.755 15.9591 7.13125 17.0616C7.14875 17.1229 7.14 17.1754 7.14875 17.2454C7.805 17.4029 8.47875 17.4991 9.1875 17.4991C9.8875 17.4991 10.57 17.4029 11.2175 17.2366C11.2262 17.1754 11.2262 17.1229 11.2437 17.0529C11.6112 15.9504 11.8825 14.8216 12.0925 13.6754C11.13 13.7804 10.1587 13.8591 9.1875 13.8591C8.21625 13.8591 7.245 13.7891 6.2825 13.6841ZM6.08125 6.083C5.81875 8.148 5.81875 10.2305 6.08125 12.3043C8.14625 12.5668 10.2288 12.5668 12.3025 12.3043C12.565 10.2393 12.565 8.15675 12.3025 6.083C10.2288 5.8205 8.14625 5.8205 6.08125 6.083Z" fill="#32363A"/>
</svg>
