<svg width="21" height="21" viewBox="0 0 21 21" fill="none" xmlns="http://www.w3.org/2000/svg">
<path d="M10.5004 13.0199C9.70414 13.0199 9.05664 12.3724 9.05664 11.5762V9.41494C9.05664 8.61869 9.70414 7.97119 10.5004 7.97119C11.2966 7.97119 11.9441 8.61869 11.9441 9.41494V11.5762C11.9441 12.3724 11.2966 13.0199 10.5004 13.0199Z" stroke="#32363A" stroke-width="1.5" stroke-linecap="round"/>
<path d="M14.8575 11.7865C14.6825 14.044 12.7925 15.8115 10.5 15.8115C8.085 15.8115 6.125 13.8515 6.125 11.4365V9.56397C6.125 7.14897 8.085 5.18896 10.5 5.18896C12.7663 5.18896 14.63 6.91272 14.8487 9.11772" stroke="#32363A" stroke-width="1.5" stroke-linecap="round"/>
<path d="M13.125 1.75H14.875C17.5 1.75 19.25 3.5 19.25 6.125V7.875M1.75 7.875V6.125C1.75 3.5 3.5 1.75 6.125 1.75H7.875M13.125 19.25H14.875C17.5 19.25 19.25 17.5 19.25 14.875V13.125M1.75 13.125V14.875C1.75 17.5 3.5 19.25 6.125 19.25H7.875" stroke="#32363A" stroke-width="1.5" stroke-miterlimit="10" stroke-linecap="round" stroke-linejoin="round"/>
</svg>
