<svg width="21" height="21" viewBox="0 0 21 21" fill="none" xmlns="http://www.w3.org/2000/svg">
<path d="M13.8247 1.93368C13.466 1.57493 12.8447 1.81993 12.8447 2.31868V5.37243C12.8447 6.64993 13.9297 7.70868 15.251 7.70868C16.0822 7.71743 17.2372 7.71743 18.226 7.71743C18.7247 7.71743 18.9872 7.13118 18.6372 6.78118C17.3772 5.51243 15.1197 3.22868 13.8247 1.93368Z" fill="#32363A"/>
<path d="M17.9375 8.91625H15.4088C13.335 8.91625 11.6463 7.2275 11.6463 5.15375V2.625C11.6463 2.14375 11.2525 1.75 10.7713 1.75H7.06125C4.36625 1.75 2.1875 3.5 2.1875 6.62375V14.3763C2.1875 17.5 4.36625 19.25 7.06125 19.25H13.9388C16.6337 19.25 18.8125 17.5 18.8125 14.3763V9.79125C18.8125 9.31 18.4188 8.91625 17.9375 8.91625ZM10.0625 15.5312H6.5625C6.20375 15.5312 5.90625 15.2338 5.90625 14.875C5.90625 14.5162 6.20375 14.2188 6.5625 14.2188H10.0625C10.4213 14.2188 10.7188 14.5162 10.7188 14.875C10.7188 15.2338 10.4213 15.5312 10.0625 15.5312ZM11.8125 12.0312H6.5625C6.20375 12.0312 5.90625 11.7338 5.90625 11.375C5.90625 11.0162 6.20375 10.7188 6.5625 10.7188H11.8125C12.1713 10.7188 12.4688 11.0162 12.4688 11.375C12.4688 11.7338 12.1713 12.0312 11.8125 12.0312Z" fill="#32363A"/>
</svg>
