<svg width="21" height="21" viewBox="0 0 21 21" fill="none" xmlns="http://www.w3.org/2000/svg">
<path d="M19.25 19.25H1.75C1.39125 19.25 1.09375 18.9525 1.09375 18.5938C1.09375 18.235 1.39125 17.9375 1.75 17.9375H19.25C19.6087 17.9375 19.9062 18.235 19.9062 18.5938C19.9062 18.9525 19.6087 19.25 19.25 19.25Z" fill="#32363A"/>
<path d="M19.25 19.25H1.75C1.39125 19.25 1.09375 18.9525 1.09375 18.5938C1.09375 18.235 1.39125 17.9375 1.75 17.9375H19.25C19.6087 17.9375 19.9062 18.235 19.9062 18.5938C19.9062 18.9525 19.6087 19.25 19.25 19.25Z" fill="url(#paint0_linear_99_2902)"/>
<path d="M8.53125 3.5V19.25H12.4688V3.5C12.4688 2.5375 12.075 1.75 10.8938 1.75H10.1063C8.925 1.75 8.53125 2.5375 8.53125 3.5ZM2.625 8.75V19.25H6.125V8.75C6.125 7.7875 5.775 7 4.725 7H4.025C2.975 7 2.625 7.7875 2.625 8.75ZM14.875 13.125V19.25H18.375V13.125C18.375 12.1625 18.025 11.375 16.975 11.375H16.275C15.225 11.375 14.875 12.1625 14.875 13.125Z" fill="#32363A"/>
<path d="M8.53125 3.5V19.25H12.4688V3.5C12.4688 2.5375 12.075 1.75 10.8938 1.75H10.1063C8.925 1.75 8.53125 2.5375 8.53125 3.5ZM2.625 8.75V19.25H6.125V8.75C6.125 7.7875 5.775 7 4.725 7H4.025C2.975 7 2.625 7.7875 2.625 8.75ZM14.875 13.125V19.25H18.375V13.125C18.375 12.1625 18.025 11.375 16.975 11.375H16.275C15.225 11.375 14.875 12.1625 14.875 13.125Z" fill="url(#paint1_linear_99_2902)"/>
<defs>
<linearGradient id="paint0_linear_99_2902" x1="0.518206" y1="18.0937" x2="0.565307" y2="19.8808" gradientUnits="userSpaceOnUse">
<stop stop-color="#2F76FF"/>
<stop offset="1" stop-color="#085BF8"/>
</linearGradient>
<linearGradient id="paint1_linear_99_2902" x1="2.14315" y1="3.83333" x2="10.6525" y2="24.1049" gradientUnits="userSpaceOnUse">
<stop stop-color="#2F76FF"/>
<stop offset="1" stop-color="#085BF8"/>
</linearGradient>
</defs>
</svg>
