<svg width="21" height="21" viewBox="0 0 21 21" fill="none" xmlns="http://www.w3.org/2000/svg">
<path d="M10.4473 1.93531L8.33855 6.84406H6.2298C5.8798 6.84406 5.53855 6.87031 5.20605 6.94031L6.08105 4.84031L6.11605 4.76156L6.16856 4.62156C6.19481 4.56031 6.2123 4.50781 6.23855 4.46406C7.25355 2.11031 8.39105 1.37531 10.4473 1.93531ZM16.3894 7.07856L16.3719 7.06981C15.8469 6.92106 15.3132 6.84231 14.7707 6.84231H9.29318L11.2619 2.26606L11.2882 2.20481C11.4107 2.24856 11.5419 2.30981 11.6732 2.35356L13.6069 3.16731C14.6832 3.61356 15.4357 4.07731 15.8994 4.63731C15.9782 4.74231 16.0482 4.83856 16.1182 4.95231C16.1969 5.07481 16.2582 5.19731 16.2932 5.32856C16.3282 5.40731 16.3544 5.47731 16.3719 5.55606C16.5032 6.00231 16.5119 6.50981 16.3894 7.07856ZM10.9548 15.4506H11.1736C11.4361 15.4506 11.6548 15.2143 11.6548 14.9256C11.6548 14.5581 11.5498 14.5056 11.3223 14.4181L10.9548 14.2868V15.4506Z" fill="#32363A"/>
<path d="M16.0018 8.32979C15.608 8.21604 15.1968 8.15479 14.768 8.15479H6.22801C5.63301 8.15479 5.07301 8.26854 4.54801 8.49604C3.77985 8.82649 3.12526 9.37462 2.665 10.0728C2.20475 10.7709 1.95897 11.5886 1.95801 12.4248V14.131C1.95801 14.341 1.97551 14.5423 2.00176 14.7523C2.19426 17.5348 3.68176 19.0223 6.46426 19.206C6.66551 19.2323 6.86676 19.2498 7.08551 19.2498H13.9105C17.148 19.2498 18.8543 17.7098 19.0205 14.6473C19.0293 14.481 19.038 14.306 19.038 14.131V12.4248C19.0368 11.5072 18.7411 10.6141 18.1946 9.87702C17.6481 9.13991 16.8794 8.59758 16.0018 8.32979ZM11.618 13.5623C12.0205 13.7023 12.563 13.9998 12.563 14.9273C12.563 15.7235 11.9418 16.3623 11.1718 16.3623H10.953V16.5548C10.953 16.8085 10.7518 17.0098 10.498 17.0098C10.2443 17.0098 10.043 16.8085 10.043 16.5548V16.3623H9.96426C9.12426 16.3623 8.43301 15.6535 8.43301 14.7785C8.43301 14.5248 8.63426 14.3235 8.88801 14.3235C9.14176 14.3235 9.34301 14.5248 9.34301 14.7785C9.34301 15.146 9.62301 15.4523 9.96426 15.4523H10.043V13.9735L9.37801 13.7373C8.97551 13.5973 8.43301 13.2998 8.43301 12.3723C8.43301 11.576 9.05426 10.9373 9.82426 10.9373H10.043V10.7448C10.043 10.491 10.2443 10.2898 10.498 10.2898C10.7518 10.2898 10.953 10.491 10.953 10.7448V10.9373H11.0318C11.8718 10.9373 12.563 11.646 12.563 12.521C12.563 12.7748 12.3618 12.976 12.108 12.976C11.8543 12.976 11.653 12.7748 11.653 12.521C11.653 12.1535 11.373 11.8473 11.0318 11.8473H10.953V13.326L11.618 13.5623Z" fill="#32363A"/>
<path d="M9.34473 12.3727C9.34473 12.7402 9.44973 12.7927 9.67723 12.8802L10.0447 13.0114V11.8477H9.82598C9.55473 11.8477 9.34473 12.0839 9.34473 12.3727Z" fill="#32363A"/>
</svg>
