<svg width="47" height="47" viewBox="0 0 47 47" fill="none" xmlns="http://www.w3.org/2000/svg">
<circle cx="23.5" cy="23.5" r="23.5" fill="#D9D9D9"/>
<circle cx="23.5" cy="23.5" r="23.5" fill="url(#paint0_linear_69_161)"/>
<path d="M23.9999 23C25.326 23 26.5978 22.4732 27.5354 21.5355C28.4731 20.5979 28.9999 19.3261 28.9999 18C28.9999 16.6739 28.4731 15.4021 27.5354 14.4645C26.5978 13.5268 25.326 13 23.9999 13C22.6738 13 21.4021 13.5268 20.4644 14.4645C19.5267 15.4021 18.9999 16.6739 18.9999 18C18.9999 19.3261 19.5267 20.5979 20.4644 21.5355C21.4021 22.4732 22.6738 23 23.9999 23ZM23.9999 25.5C18.9899 25.5 14.9099 28.86 14.9099 33C14.9099 33.28 15.1299 33.5 15.4099 33.5H32.5899C32.8699 33.5 33.0899 33.28 33.0899 33C33.0899 28.86 29.0099 25.5 23.9999 25.5Z" fill="white"/>
<defs>
<linearGradient id="paint0_linear_69_161" x1="48.0967" y1="12.3474" x2="-1.68006" y2="16.2148" gradientUnits="userSpaceOnUse">
<stop stop-color="#246CF9"/>
<stop offset="0.0001" stop-color="#3177FF"/>
<stop offset="1" stop-color="#075AF8"/>
</linearGradient>
</defs>
</svg>
