<svg width="30" height="30" viewBox="0 0 30 30" fill="none" xmlns="http://www.w3.org/2000/svg">
<path d="M14.9998 14.672C18.3353 14.672 21.0395 11.3876 21.0395 7.33603C21.0395 3.2844 20.1517 0 14.9998 0C9.84796 0 8.95996 3.2844 8.95996 7.33603C8.95996 11.3876 11.6642 14.672 14.9998 14.672Z" fill="#C7D5EB"/>
<path d="M14.9998 14.672C18.3353 14.672 21.0395 11.3876 21.0395 7.33603C21.0395 3.2844 20.1517 0 14.9998 0C9.84796 0 8.95996 3.2844 8.95996 7.33603C8.95996 11.3876 11.6642 14.672 14.9998 14.672Z" fill="white"/>
<path d="M3.59201 25.873C3.58995 25.8034 3.59098 25.626 3.59201 25.873V25.873Z" fill="white"/>
<path d="M26.4072 26.0662C26.4083 25.597 26.4105 25.9986 26.4072 26.0662V26.0662Z" fill="white"/>
<path d="M26.3941 25.5769C26.2823 18.519 25.3605 16.5079 18.3068 15.2349C18.3068 15.2349 17.3139 16.5001 14.9996 16.5001C12.6853 16.5001 11.6922 15.2349 11.6922 15.2349C4.71551 16.494 3.73768 18.4753 3.60911 25.3476C3.59857 25.9088 3.59368 25.9383 3.5918 25.8731C3.59223 25.9952 3.59274 26.2209 3.59274 26.6146C3.59274 26.6146 5.27205 30 14.9996 30C24.727 30 26.4065 26.6146 26.4065 26.6146C26.4065 26.3617 26.4066 26.1858 26.4069 26.0661C26.405 26.1064 26.4012 26.0283 26.3941 25.5769Z" fill="#BDCBE1"/>
<path d="M26.3941 25.5769C26.2823 18.519 25.3605 16.5079 18.3068 15.2349C18.3068 15.2349 17.3139 16.5001 14.9996 16.5001C12.6853 16.5001 11.6922 15.2349 11.6922 15.2349C4.71551 16.494 3.73768 18.4753 3.60911 25.3476C3.59857 25.9088 3.59368 25.9383 3.5918 25.8731C3.59223 25.9952 3.59274 26.2209 3.59274 26.6146C3.59274 26.6146 5.27205 30 14.9996 30C24.727 30 26.4065 26.6146 26.4065 26.6146C26.4065 26.3617 26.4066 26.1858 26.4069 26.0661C26.405 26.1064 26.4012 26.0283 26.3941 25.5769Z" fill="white"/>
</svg>
