<svg width="18" height="18" viewBox="0 0 18 18" fill="none" xmlns="http://www.w3.org/2000/svg">
<path d="M17.8856 8.64989C17.7248 8.42992 13.8934 3.26373 8.99991 3.26373C4.10647 3.26373 0.274852 8.42992 0.114223 8.64968C-0.0380743 8.85837 -0.0380743 9.14141 0.114223 9.3501C0.274852 9.57007 4.10647 14.7363 8.99991 14.7363C13.8934 14.7363 17.7248 9.57004 17.8856 9.35028C18.0381 9.14162 18.0381 8.85837 17.8856 8.64989ZM8.99991 13.5495C5.39537 13.5495 2.27345 10.1206 1.3493 8.99959C2.27226 7.87765 5.38764 4.45054 8.99991 4.45054C12.6043 4.45054 15.726 7.87884 16.6505 9.0004C15.7276 10.1223 12.6122 13.5495 8.99991 13.5495Z" fill="white"/>
<path d="M17.8856 8.64989C17.7248 8.42992 13.8934 3.26373 8.99991 3.26373C4.10647 3.26373 0.274852 8.42992 0.114223 8.64968C-0.0380743 8.85837 -0.0380743 9.14141 0.114223 9.3501C0.274852 9.57007 4.10647 14.7363 8.99991 14.7363C13.8934 14.7363 17.7248 9.57004 17.8856 9.35028C18.0381 9.14162 18.0381 8.85837 17.8856 8.64989ZM8.99991 13.5495C5.39537 13.5495 2.27345 10.1206 1.3493 8.99959C2.27226 7.87765 5.38764 4.45054 8.99991 4.45054C12.6043 4.45054 15.726 7.87884 16.6505 9.0004C15.7276 10.1223 12.6122 13.5495 8.99991 13.5495Z" fill="url(#paint0_linear_69_203)"/>
<path d="M8.99991 5.43958C7.03671 5.43958 5.43945 7.03683 5.43945 9.00003C5.43945 10.9632 7.03671 12.5605 8.99991 12.5605C10.9631 12.5605 12.5604 10.9632 12.5604 9.00003C12.5604 7.03683 10.9631 5.43958 8.99991 5.43958ZM8.99991 11.3736C7.69104 11.3736 6.6263 10.3089 6.6263 9.00003C6.6263 7.6912 7.69107 6.62642 8.99991 6.62642C10.3087 6.62642 11.3735 7.6912 11.3735 9.00003C11.3735 10.3089 10.3088 11.3736 8.99991 11.3736Z" fill="white"/>
<path d="M8.99991 5.43958C7.03671 5.43958 5.43945 7.03683 5.43945 9.00003C5.43945 10.9632 7.03671 12.5605 8.99991 12.5605C10.9631 12.5605 12.5604 10.9632 12.5604 9.00003C12.5604 7.03683 10.9631 5.43958 8.99991 5.43958ZM8.99991 11.3736C7.69104 11.3736 6.6263 10.3089 6.6263 9.00003C6.6263 7.6912 7.69107 6.62642 8.99991 6.62642C10.3087 6.62642 11.3735 7.6912 11.3735 9.00003C11.3735 10.3089 10.3088 11.3736 8.99991 11.3736Z" fill="url(#paint1_linear_69_203)"/>
<defs>
<linearGradient id="paint0_linear_69_203" x1="-0.550687" y1="4.62951" x2="3.00686" y2="19.4041" gradientUnits="userSpaceOnUse">
<stop stop-color="#2F76FF"/>
<stop offset="1" stop-color="#085BF8"/>
</linearGradient>
<linearGradient id="paint1_linear_69_203" x1="5.2216" y1="6.2873" x2="8.42917" y2="14.7777" gradientUnits="userSpaceOnUse">
<stop stop-color="#2F76FF"/>
<stop offset="1" stop-color="#085BF8"/>
</linearGradient>
</defs>
</svg>
