<svg width="35" height="35" viewBox="0 0 35 35" fill="none" xmlns="http://www.w3.org/2000/svg">
<circle cx="17.5" cy="17.5" r="17.5" fill="#D9D9D9"/>
<circle cx="17.5" cy="17.5" r="17.5" fill="#282C2E"/>
<g clip-path="url(#clip0_99_1091)">
<path d="M17.9999 17.8031C20.0012 17.8031 21.6237 15.8325 21.6237 13.4016C21.6237 10.9706 21.091 8.99994 17.9999 8.99994C14.9088 8.99994 14.376 10.9706 14.376 13.4016C14.376 15.8325 15.9985 17.8031 17.9999 17.8031Z" fill="#C7D5EB"/>
<path d="M17.9999 17.8031C20.0012 17.8031 21.6237 15.8325 21.6237 13.4016C21.6237 10.9706 21.091 8.99994 17.9999 8.99994C14.9088 8.99994 14.376 10.9706 14.376 13.4016C14.376 15.8325 15.9985 17.8031 17.9999 17.8031Z" fill="url(#paint0_linear_99_1091)"/>
<path d="M11.155 24.5238C11.1538 24.482 11.1544 24.3756 11.155 24.5238V24.5238Z" fill="white"/>
<path d="M24.8438 24.6396C24.8444 24.3581 24.8457 24.599 24.8438 24.6396V24.6396Z" fill="white"/>
<path d="M24.8367 24.3461C24.7695 20.1114 24.2165 18.9047 19.9843 18.1409C19.9843 18.1409 19.3885 18.9 18 18.9C16.6114 18.9 16.0155 18.1409 16.0155 18.1409C11.8295 18.8964 11.2428 20.0851 11.1657 24.2085C11.1593 24.5452 11.1564 24.5629 11.1553 24.5238C11.1555 24.5971 11.1558 24.7325 11.1558 24.9687C11.1558 24.9687 12.1634 27 18 27C23.8364 27 24.8441 24.9687 24.8441 24.9687C24.8441 24.817 24.8442 24.7114 24.8443 24.6396C24.8432 24.6638 24.8409 24.617 24.8367 24.3461Z" fill="#BDCBE1"/>
<path d="M24.8367 24.3461C24.7695 20.1114 24.2165 18.9047 19.9843 18.1409C19.9843 18.1409 19.3885 18.9 18 18.9C16.6114 18.9 16.0155 18.1409 16.0155 18.1409C11.8295 18.8964 11.2428 20.0851 11.1657 24.2085C11.1593 24.5452 11.1564 24.5629 11.1553 24.5238C11.1555 24.5971 11.1558 24.7325 11.1558 24.9687C11.1558 24.9687 12.1634 27 18 27C23.8364 27 24.8441 24.9687 24.8441 24.9687C24.8441 24.817 24.8442 24.7114 24.8443 24.6396C24.8432 24.6638 24.8409 24.617 24.8367 24.3461Z" fill="url(#paint1_linear_99_1091)"/>
</g>
<defs>
<linearGradient id="paint0_linear_99_1091" x1="15.9082" y1="9.92659" x2="24.0589" y2="13.4445" gradientUnits="userSpaceOnUse">
<stop stop-color="#3077FF"/>
<stop offset="1" stop-color="#085BF8"/>
</linearGradient>
<linearGradient id="paint1_linear_99_1091" x1="14.0493" y1="19.0734" x2="25.076" y2="28.0056" gradientUnits="userSpaceOnUse">
<stop stop-color="#3077FF"/>
<stop offset="1" stop-color="#085BF8"/>
</linearGradient>
<clipPath id="clip0_99_1091">
<rect width="18" height="18" fill="white" transform="translate(9 8.99994)"/>
</clipPath>
</defs>
</svg>
