<svg width="21" height="21" viewBox="0 0 21 21" fill="none" xmlns="http://www.w3.org/2000/svg">
<path d="M17.5875 8.06836C16.0038 8.06836 15.3563 6.94836 16.1438 5.57461C16.5988 4.77836 16.3275 3.76336 15.5313 3.30836L14.0175 2.44211C13.3263 2.03086 12.4338 2.27586 12.0225 2.96711L11.9263 3.13336C11.1388 4.50711 9.84375 4.50711 9.0475 3.13336L8.95125 2.96711C8.85693 2.80172 8.73065 2.65674 8.57977 2.5406C8.42889 2.42447 8.25642 2.3395 8.0724 2.29065C7.88838 2.24179 7.69648 2.23002 7.50786 2.25603C7.31925 2.28203 7.13769 2.34528 6.97375 2.44211L5.46 3.30836C4.66375 3.76336 4.3925 4.78711 4.8475 5.58336C5.64375 6.94836 4.99625 8.06836 3.4125 8.06836C2.5025 8.06836 1.75 8.81211 1.75 9.73086V11.2709C1.75 12.1809 2.49375 12.9334 3.4125 12.9334C4.99625 12.9334 5.64375 14.0534 4.8475 15.4271C4.3925 16.2234 4.66375 17.2384 5.46 17.6934L6.97375 18.5596C7.665 18.9709 8.5575 18.7259 8.96875 18.0346L9.065 17.8684C9.8525 16.4946 11.1475 16.4946 11.9438 17.8684L12.04 18.0346C12.4513 18.7259 13.3438 18.9709 14.035 18.5596L15.5488 17.6934C16.345 17.2384 16.6163 16.2146 16.1613 15.4271C15.365 14.0534 16.0125 12.9334 17.5963 12.9334C18.5063 12.9334 19.2588 12.1896 19.2588 11.2709V9.73086C19.2542 9.28985 19.0763 8.86833 18.7637 8.55728C18.451 8.24624 18.0285 8.07063 17.5875 8.06836ZM10.5 13.3446C8.93375 13.3446 7.65625 12.0671 7.65625 10.5009C7.65625 8.93461 8.93375 7.65711 10.5 7.65711C12.0663 7.65711 13.3438 8.93461 13.3438 10.5009C13.3438 12.0671 12.0663 13.3446 10.5 13.3446Z" fill="#32363A"/>
</svg>
