<svg width="21" height="21" viewBox="0 0 21 21" fill="none" xmlns="http://www.w3.org/2000/svg">
<path d="M14.875 3.0625H6.125C3.5 3.0625 1.75 4.375 1.75 7.4375V13.5625C1.75 16.625 3.5 17.9375 6.125 17.9375H14.875C17.5 17.9375 19.25 16.625 19.25 13.5625V7.4375C19.25 4.375 17.5 3.0625 14.875 3.0625ZM5.90625 14C5.90625 14.3588 5.60875 14.6562 5.25 14.6562C4.89125 14.6562 4.59375 14.3588 4.59375 14V7C4.59375 6.64125 4.89125 6.34375 5.25 6.34375C5.60875 6.34375 5.90625 6.64125 5.90625 7V14ZM8.53125 14C8.53125 14.3588 8.23375 14.6562 7.875 14.6562C7.51625 14.6562 7.21875 14.3588 7.21875 14V13.125C7.21875 12.7662 7.51625 12.4688 7.875 12.4688C8.23375 12.4688 8.53125 12.7662 8.53125 13.125V14ZM8.53125 10.5C8.53125 10.8587 8.23375 11.1562 7.875 11.1562C7.51625 11.1562 7.21875 10.8587 7.21875 10.5V7C7.21875 6.64125 7.51625 6.34375 7.875 6.34375C8.23375 6.34375 8.53125 6.64125 8.53125 7V10.5ZM11.1562 14C11.1562 14.3588 10.8588 14.6562 10.5 14.6562C10.1412 14.6562 9.84375 14.3588 9.84375 14V7C9.84375 6.64125 10.1412 6.34375 10.5 6.34375C10.8588 6.34375 11.1562 6.64125 11.1562 7V14ZM13.7812 14C13.7812 14.3588 13.4838 14.6562 13.125 14.6562C12.7662 14.6562 12.4688 14.3588 12.4688 14V10.5C12.4688 10.1413 12.7662 9.84375 13.125 9.84375C13.4838 9.84375 13.7812 10.1413 13.7812 10.5V14ZM13.7812 7.875C13.7812 8.23375 13.4838 8.53125 13.125 8.53125C12.7662 8.53125 12.4688 8.23375 12.4688 7.875V7C12.4688 6.64125 12.7662 6.34375 13.125 6.34375C13.4838 6.34375 13.7812 6.64125 13.7812 7V7.875ZM16.4062 14C16.4062 14.3588 16.1088 14.6562 15.75 14.6562C15.3912 14.6562 15.0938 14.3588 15.0938 14V7C15.0938 6.64125 15.3912 6.34375 15.75 6.34375C16.1088 6.34375 16.4062 6.64125 16.4062 7V14Z" fill="black"/>
<path d="M14.875 3.0625H6.125C3.5 3.0625 1.75 4.375 1.75 7.4375V13.5625C1.75 16.625 3.5 17.9375 6.125 17.9375H14.875C17.5 17.9375 19.25 16.625 19.25 13.5625V7.4375C19.25 4.375 17.5 3.0625 14.875 3.0625ZM5.90625 14C5.90625 14.3588 5.60875 14.6562 5.25 14.6562C4.89125 14.6562 4.59375 14.3588 4.59375 14V7C4.59375 6.64125 4.89125 6.34375 5.25 6.34375C5.60875 6.34375 5.90625 6.64125 5.90625 7V14ZM8.53125 14C8.53125 14.3588 8.23375 14.6562 7.875 14.6562C7.51625 14.6562 7.21875 14.3588 7.21875 14V13.125C7.21875 12.7662 7.51625 12.4688 7.875 12.4688C8.23375 12.4688 8.53125 12.7662 8.53125 13.125V14ZM8.53125 10.5C8.53125 10.8587 8.23375 11.1562 7.875 11.1562C7.51625 11.1562 7.21875 10.8587 7.21875 10.5V7C7.21875 6.64125 7.51625 6.34375 7.875 6.34375C8.23375 6.34375 8.53125 6.64125 8.53125 7V10.5ZM11.1562 14C11.1562 14.3588 10.8588 14.6562 10.5 14.6562C10.1412 14.6562 9.84375 14.3588 9.84375 14V7C9.84375 6.64125 10.1412 6.34375 10.5 6.34375C10.8588 6.34375 11.1562 6.64125 11.1562 7V14ZM13.7812 14C13.7812 14.3588 13.4838 14.6562 13.125 14.6562C12.7662 14.6562 12.4688 14.3588 12.4688 14V10.5C12.4688 10.1413 12.7662 9.84375 13.125 9.84375C13.4838 9.84375 13.7812 10.1413 13.7812 10.5V14ZM13.7812 7.875C13.7812 8.23375 13.4838 8.53125 13.125 8.53125C12.7662 8.53125 12.4688 8.23375 12.4688 7.875V7C12.4688 6.64125 12.7662 6.34375 13.125 6.34375C13.4838 6.34375 13.7812 6.64125 13.7812 7V7.875ZM16.4062 14C16.4062 14.3588 16.1088 14.6562 15.75 14.6562C15.3912 14.6562 15.0938 14.3588 15.0938 14V7C15.0938 6.64125 15.3912 6.34375 15.75 6.34375C16.1088 6.34375 16.4062 6.64125 16.4062 7V14Z" fill="url(#paint0_linear_99_1064)"/>
<defs>
<linearGradient id="paint0_linear_99_1064" x1="1.21461" y1="4.83333" x2="7.11439" y2="23.2058" gradientUnits="userSpaceOnUse">
<stop stop-color="#2F76FF"/>
<stop offset="1" stop-color="#085BF8"/>
</linearGradient>
</defs>
</svg>
