<svg width="21" height="21" viewBox="0 0 21 21" fill="none" xmlns="http://www.w3.org/2000/svg">
<path d="M7.87484 1.75C5.58234 1.75 3.71859 3.61375 3.71859 5.90625C3.71859 8.155 5.47734 9.975 7.76984 10.0538C7.83984 10.045 7.90984 10.045 7.96234 10.0538H8.02359C9.09928 10.0179 10.1188 9.56504 10.8667 8.79104C11.6146 8.01704 12.0321 6.98253 12.0311 5.90625C12.0311 3.61375 10.1673 1.75 7.87484 1.75ZM12.3198 12.3804C9.87859 10.7529 5.89734 10.7529 3.43859 12.3804C2.32734 13.1241 1.71484 14.1304 1.71484 15.2066C1.71484 16.2829 2.32734 17.2804 3.42984 18.0154C4.65484 18.8379 6.26484 19.2491 7.87484 19.2491C9.48484 19.2491 11.0948 18.8379 12.3198 18.0154C13.4223 17.2716 14.0348 16.2741 14.0348 15.1891C14.0261 14.1129 13.4223 13.1154 12.3198 12.3804ZM17.4911 6.42075C17.6311 8.11825 16.4236 9.60575 14.7523 9.807H14.7086C14.6561 9.807 14.6036 9.807 14.5598 9.8245C13.7111 9.86825 12.9323 9.597 12.3461 9.09825C13.2473 8.29325 13.7636 7.08575 13.6586 5.77325C13.5986 5.09075 13.3668 4.43455 12.9848 3.86575C13.4433 3.6427 13.9492 3.53453 14.4588 3.55059C14.9684 3.56665 15.4665 3.70645 15.91 3.95793C16.3536 4.20941 16.7293 4.56502 17.0047 4.99409C17.2802 5.42315 17.4471 5.91278 17.4911 6.42075Z" fill="#32363A"/>
<path d="M19.2393 14.5162C19.1693 15.365 18.6268 16.1 17.7168 16.5987C16.8418 17.08 15.7393 17.3075 14.6455 17.2812C15.2755 16.7125 15.643 16.0037 15.713 15.2512C15.8005 14.1662 15.2843 13.125 14.2518 12.2937C13.6655 11.83 12.983 11.4625 12.2393 11.1912C14.173 10.6312 16.6055 11.0075 18.1018 12.215C18.9068 12.8625 19.318 13.6762 19.2393 14.5162Z" fill="#32363A"/>
</svg>
